<svg width="37" height="49" viewBox="0 0 37 49" fill="none" xmlns="http://www.w3.org/2000/svg">
<g clip-path="url(#clip0_286_2498)">
<path d="M18.4629 46.9996L18.2725 46.7612C17.59 45.9068 16.9115 45.0664 16.2391 44.2334C14.7159 42.3465 13.2237 40.4979 11.7852 38.6126C8.51486 34.3275 5.42954 29.8988 3.15003 24.971L18.4629 46.9996ZM18.4629 46.9996L18.6592 46.766M18.4629 46.9996L18.6592 46.766M18.6592 46.766C19.7712 45.4432 25.561 38.1879 25.7199 37.9766L25.7199 37.9765M18.6592 46.766L25.7199 37.9765M25.7199 37.9765C28.8509 33.808 31.8015 29.5071 34.0037 24.7464C35.3995 21.7285 36.1156 18.6126 35.4483 15.2118C33.6309 5.93308 24.7755 -0.096585 15.3247 1.59915L15.3246 1.59916M25.7199 37.9765L15.3246 1.59916M15.3246 1.59916C7.41702 3.01971 1.43288 9.98402 1.30219 17.9299M15.3246 1.59916L1.30219 17.9299M1.30219 17.9299C1.26011 20.4668 2.12787 22.7648 3.14997 24.9709L1.30219 17.9299ZM3.06606 27.1842L3.06604 27.1842C1.8563 24.8603 0.774548 22.5042 0.405621 19.9329L0.405614 19.9328C-0.109177 16.35 0.676282 12.9582 2.42305 9.81216L2.42316 9.81196C5.3528 4.52362 9.88447 1.32814 15.8966 0.447111L15.8966 0.447108C25.4562 -0.954758 34.3473 5.28552 36.403 14.5541C37.2769 18.4937 36.4246 22.1077 34.7166 25.6734C32.295 30.7287 29.1364 35.3294 25.6996 39.7623C24.0907 41.8364 22.4267 43.8663 20.717 45.9519C20.0017 46.8244 19.2784 47.7068 18.5478 48.6061C17.973 47.9151 17.408 47.2412 16.8517 46.5778C15.4993 44.9648 14.1987 43.4136 12.9373 41.8294L12.7417 41.9851L12.9373 41.8294C9.25077 37.2003 5.7932 32.4251 3.06606 27.1842Z" fill="#2D2DC1" stroke="#2D2DC1" stroke-width="0.5"/>
<path d="M19.8659 21.5054C23.1767 20.9807 25.977 18.3369 26.3262 15.014L26.3262 15.0139C26.5316 13.0562 26.5001 11.072 26.4689 9.11166C26.4637 8.7845 26.4585 8.458 26.4544 8.13241C26.4402 6.97427 25.4427 5.99521 24.2949 5.9085C23.507 5.84866 22.7058 5.86253 21.9062 5.87637C21.56 5.88236 21.2142 5.88835 20.8697 5.88835H20.6206L20.6197 6.13745C20.6179 6.63639 20.6179 7.08399 20.6179 7.64419V7.89419L19.826 21.2586M19.8659 21.5054C19.8656 21.5055 19.8654 21.5055 19.8651 21.5056L19.826 21.2586M19.8659 21.5054C19.8661 21.5054 19.8664 21.5054 19.8667 21.5053L19.826 21.2586M19.8659 21.5054C19.7791 21.5198 19.7007 21.541 19.5971 21.5691C19.5892 21.5713 19.581 21.5735 19.5727 21.5757M19.826 21.2586C19.7271 21.275 19.6297 21.3012 19.5159 21.3319C19.4571 21.3478 19.3939 21.3649 19.3238 21.3824M19.5727 21.5757C19.5734 21.5116 19.5738 21.4472 19.5738 21.3824H19.3238M19.5727 21.5757C19.5703 21.7976 19.5641 22.0156 19.5581 22.2309C19.5411 22.8336 19.5247 23.4142 19.5918 23.996L19.5918 23.9961C19.7072 24.9995 20.5482 25.6803 21.6665 25.703L21.6669 25.703C22.2337 25.7153 22.7932 25.7127 23.3568 25.71C23.7659 25.7081 24.1771 25.7062 24.5947 25.71L24.5949 25.71C26.5401 25.7289 28.0155 27.1177 28.0272 28.9896L28.0272 28.9896C28.0388 30.8955 26.5506 32.3071 24.5594 32.3147H24.5593C22.7966 32.3208 21.0336 32.3193 19.2789 32.3178C18.5531 32.3171 17.8287 32.3165 17.1064 32.3164M19.5727 21.5757C19.5184 21.5904 19.457 21.6068 19.3843 21.6249L19.3238 21.3824M19.3238 21.3824L17.1064 32.3164M17.1064 32.3164C17.1301 32.2704 17.1535 32.2238 17.1767 32.1764L16.9522 32.0664M17.1064 32.3164L19.3435 24.0247C19.4757 25.1752 20.4426 25.9282 21.6615 25.9529C22.2287 25.9652 22.7966 25.9626 23.3648 25.96C23.7739 25.9582 24.1832 25.9563 24.5924 25.96C26.4136 25.9777 27.7665 27.2679 27.7772 28.9911C27.7879 30.7462 26.4243 32.0576 24.5585 32.0647C22.7963 32.0708 21.0342 32.0693 19.2798 32.0678C18.5022 32.0671 17.7261 32.0664 16.9522 32.0664M17.1064 32.3164C17.055 32.3164 17.0036 32.3164 16.9522 32.3164V32.0664M17.1064 32.3164C16.6535 33.1947 16.1018 33.837 15.4484 34.216C14.7549 34.6183 13.9714 34.7095 13.1243 34.5046M16.9522 32.0664C16.0479 33.9116 14.7683 34.6451 13.1831 34.2616M24.7586 30.5217C25.5915 30.5129 26.2134 29.8183 26.2277 29.0388C26.2438 28.2347 25.5986 27.533 24.7318 27.5012C24.0971 27.4772 23.4617 27.4815 22.8264 27.4858C22.4332 27.4884 22.04 27.4911 21.6472 27.487C19.4167 27.4623 17.7708 25.8257 17.7475 23.6164M24.7586 30.5217L13.2563 6.11891C11.7587 6.13305 10.8151 7.07155 10.8061 8.56149C10.7972 10.2918 10.799 12.0203 10.8043 13.7506C10.8151 16.8966 12.6737 19.6291 15.6387 20.8097C16.0864 20.9873 16.5548 21.1136 17.0422 21.245C17.2725 21.3071 17.5071 21.3703 17.7457 21.4407C17.7457 21.6565 17.7451 21.8747 17.7444 22.0948C17.7429 22.5956 17.7413 23.1056 17.7475 23.6164M24.7586 30.5217C22.8762 30.5433 20.9937 30.5393 19.1205 30.5354C18.3866 30.5338 17.6541 30.5323 16.9236 30.5323L24.7586 30.5217ZM17.7475 23.6164L17.4975 23.6194C17.4975 23.6194 17.4975 23.6193 17.4975 23.6192C17.4913 23.1065 17.4929 22.5934 17.4944 22.0918C17.4949 21.9362 17.4954 21.7817 17.4956 21.6287C17.3288 21.5814 17.1614 21.5363 16.9944 21.4912C16.4994 21.3577 16.0077 21.225 15.5465 21.0421L15.5462 21.042C12.4872 19.8239 10.5654 17.0003 10.5543 13.7515L10.5543 13.7514C10.549 12.0208 10.5472 10.2915 10.5561 8.56019L10.5561 8.55999C10.5609 7.76165 10.8174 7.08703 11.2965 6.60966C11.7755 6.1325 12.4528 5.87648 13.254 5.86892L17.7475 23.6164ZM10.5562 31.1949C10.5562 31.1949 10.5562 31.1949 10.5562 31.1949L10.8061 31.2022L10.5562 31.1949ZM10.5562 31.1949C10.5098 32.7888 11.551 34.1241 13.1243 34.5046M10.5562 31.1949L13.1831 34.2616M13.1831 34.2616L13.1243 34.5046C13.1243 34.5046 13.1243 34.5046 13.1243 34.5046M13.1831 34.2616L13.1243 34.5046M18.4715 46.2097C17.8452 45.4271 17.2238 44.6575 16.6082 43.8951C15.0924 42.0178 13.6122 40.1847 12.1826 38.3111L12.1826 38.311C8.91732 34.0349 5.86011 29.6389 3.60375 24.7628C2.59017 22.5696 1.76368 20.3589 1.80207 17.9399C1.92874 10.2354 7.7364 3.47042 15.4129 2.09135C24.5989 0.443134 33.1934 6.30111 34.9576 15.3081C35.5967 18.5741 34.917 21.5806 33.5499 24.5365C31.3681 29.2491 28.4426 33.5167 25.3202 37.6762C25.1755 37.8686 19.937 44.4337 18.4715 46.2097ZM16.04 5.88756C15.9937 5.87934 15.9392 5.87077 15.8791 5.87068L24.512 14.9224L24.2635 14.895C24.2635 14.895 24.2635 14.895 24.2635 14.895C23.9725 17.5286 21.3514 19.595 18.5333 19.6018C15.7161 19.6086 13.0682 17.5429 12.7774 14.925C12.5988 13.3128 12.6069 11.6834 12.615 10.0393C12.6177 9.49648 12.6203 8.95205 12.6163 8.40612C12.615 8.19852 12.6871 8.08795 12.7842 8.01912C12.8955 7.94017 13.0745 7.89259 13.3172 7.89419L13.3175 7.89419C13.992 7.89798 14.666 7.89726 15.3414 7.89654C15.6118 7.89625 15.8824 7.89596 16.1534 7.89596H16.4034V7.64596V7.64271V7.63946V7.63622V7.63297V7.62973V7.62649V7.62325V7.62001V7.61678V7.61354V7.61031V7.60708V7.60386V7.60063V7.59741V7.59419V7.59097V7.58775V7.58454V7.58133V7.57811V7.57491V7.5717V7.56849V7.56529V7.56209V7.55889V7.55569V7.5525V7.5493V7.54611V7.54292V7.53973V7.53655V7.53336V7.53018V7.527V7.52382V7.52064V7.51747V7.5143V7.51112V7.50796V7.50479V7.50162V7.49846V7.4953V7.49214V7.48898V7.48582V7.48267V7.47952V7.47636V7.47322V7.47007V7.46692V7.46378V7.46064V7.4575V7.45436V7.45122V7.44809V7.44496V7.44182V7.4387V7.43557V7.43244V7.42932V7.4262V7.42308V7.41996V7.41684V7.41373V7.41061V7.4075V7.40439V7.40128V7.39818V7.39507V7.39197V7.38887V7.38577V7.38267V7.37957V7.37648V7.37339V7.3703V7.36721V7.36412V7.36103V7.35795V7.35487V7.35178V7.34871V7.34563V7.34255V7.33948V7.33641V7.33333V7.33027V7.3272V7.32413V7.32107V7.318V7.31494V7.31188V7.30883V7.30577V7.30271V7.29966V7.29661V7.29356V7.29051V7.28747V7.28442V7.28138V7.27834V7.2753V7.27226V7.26922V7.26618V7.26315V7.26012V7.25709V7.25406V7.25103V7.248V7.24498V7.24195V7.23893V7.23591V7.23289V7.22988V7.22686V7.22385V7.22084V7.21782V7.21481V7.21181V7.2088V7.2058V7.20279V7.19979V7.19679V7.19379V7.19079V7.1878V7.1848V7.18181V7.17882V7.17583V7.17284V7.16985V7.16686V7.16388V7.1609V7.15791V7.15493V7.15196V7.14898V7.146V7.14303V7.14005V7.13708V7.13411V7.13114V7.12818V7.12521V7.12224V7.11928V7.11632V7.11336V7.1104V7.10744V7.10449V7.10153V7.09858V7.09562V7.09267V7.08972V7.08677V7.08383V7.08088V7.07794V7.07499V7.07205V7.06911V7.06617V7.06323V7.0603V7.05736V7.05443V7.0515V7.04856V7.04563V7.04271V7.03978V7.03685V7.03393V7.031V7.02808V7.02516V7.02224V7.01932V7.0164V7.01349V7.01057V7.00766V7.00475V7.00183V6.99892V6.99602V6.99311V6.9902V6.9873V6.98439V6.98149V6.97859V6.97569V6.97279V6.96989V6.96699V6.9641V6.9612V6.95831V6.95542V6.95253V6.94964V6.94675V6.94386V6.94098V6.93809V6.93521V6.93232V6.92944V6.92656V6.92368V6.9208V6.91793V6.91505V6.91217V6.9093V6.90643V6.90356V6.90069V6.89782V6.89495V6.89208V6.88921V6.88635V6.88348V6.88062V6.87776V6.8749V6.87204V6.86918V6.86632V6.86347V6.86061V6.85776V6.8549V6.85205V6.8492V6.84635V6.8435V6.84065V6.8378V6.83496V6.83211V6.82927V6.82642V6.82358V6.82074V6.8179V6.81506V6.81222V6.80938V6.80655V6.80371V6.80088V6.79804V6.79521V6.79238V6.78955V6.78672V6.78389V6.78106V6.77823V6.77541V6.77258V6.76976V6.76694V6.76411V6.76129V6.75847V6.75565V6.75283V6.75001V6.7472V6.74438V6.74157V6.73875V6.73594V6.73313V6.73031V6.7275V6.72469V6.72188V6.71908V6.71627V6.71346V6.71066V6.70785V6.70505V6.70224V6.69944V6.69664V6.69384V6.69104V6.68824V6.68544V6.68264V6.67985V6.67705V6.67426V6.67146V6.66867V6.66588V6.66308V6.66029V6.6575V6.65471V6.65192V6.64914V6.64635V6.64356V6.64078V6.63799V6.63521V6.63242V6.62964V6.62686V6.62408V6.6213V6.61852V6.61574V6.61296V6.61018V6.6074V6.60463V6.60185V6.59908V6.5963V6.59353V6.59075V6.58798V6.58521V6.58244V6.57967V6.5769V6.57413V6.57136V6.56859V6.56583V6.56306V6.56029V6.55753V6.55476V6.552V6.54924V6.54647V6.54371V6.54095V6.53819V6.53543V6.53267V6.52991V6.52715V6.52439V6.52164V6.51888V6.51613V6.51337V6.51061V6.50786V6.50511V6.50235V6.4996V6.49685V6.4941V6.49135V6.4886V6.48584V6.4831V6.48035V6.4776V6.47485V6.4721V6.46936V6.46661V6.46386V6.46112V6.45837V6.45563V6.45289V6.45014V6.4474V6.44466V6.44191V6.43917V6.43643V6.43369V6.43095V6.42821V6.42547V6.42273V6.42V6.41726V6.41452V6.41178V6.40905V6.40631V6.40357V6.40084V6.3981V6.39537V6.39264V6.3899V6.38717V6.38444V6.3817V6.37897V6.37624V6.37351V6.37078V6.36805V6.36532V6.36259V6.35986V6.35713V6.3544V6.35167V6.34894V6.34622V6.34349V6.34076V6.33803V6.33531V6.33258V6.32986V6.32713V6.32441V6.32168V6.31896V6.31623V6.31351V6.31079V6.30806V6.30534V6.30262V6.29989V6.29717V6.29445V6.29173V6.28901V6.28629V6.28356V6.28084V6.27812V6.2754V6.27268V6.26996V6.26724V6.26452V6.26181V6.25909V6.25637V6.25365V6.25093V6.24821V6.2455V6.24278V6.24006V6.23734V6.23463V6.23191V6.22919V6.22648V6.22376V6.22105V6.21833V6.21561V6.2129V6.21018V6.20747V6.20475V6.20204V6.19932V6.19661V6.19389V6.19118V6.18847V6.18575V6.18304V6.18032V6.17761V6.1749V6.17218V6.16947V6.16675V6.16404V6.16133V5.94671L16.1912 5.91421C16.1505 5.90797 16.1187 5.90206 16.0865 5.89608C16.0714 5.89327 16.0563 5.89044 16.04 5.88756ZM15.3403 7.64654C15.6109 7.64625 15.8818 7.64596 16.1534 7.64596L13.3189 7.64419C13.9925 7.64798 14.6653 7.64726 15.3403 7.64654Z" fill="white" stroke="#2D2DC1" stroke-width="0.5"/>
<path d="M24.2562 6.40522L24.2561 6.40521C23.4921 6.34718 22.729 6.36046 21.9408 6.37417C21.6701 6.37888 21.3964 6.38364 21.1187 6.38558V6.38781V6.39067V6.39352V6.39638V6.39923V6.40208V6.40494V6.40779V6.41064V6.41349V6.41634V6.41919V6.42204V6.42489V6.42774V6.43059V6.43344V6.43629V6.43913V6.44198V6.44483V6.44767V6.45052V6.45337V6.45621V6.45906V6.4619V6.46474V6.46759V6.47043V6.47327V6.47612V6.47896V6.4818V6.48464V6.48748V6.49032V6.49316V6.496V6.49884V6.50168V6.50452V6.50736V6.5102V6.51304V6.51588V6.51872V6.52156V6.52439V6.52723V6.53007V6.53291V6.53574V6.53858V6.54142V6.54426V6.54709V6.54993V6.55276V6.5556V6.55844V6.56127V6.56411V6.56694V6.56978V6.57262V6.57545V6.57829V6.58112V6.58396V6.58679V6.58963V6.59246V6.5953V6.59813V6.60097V6.6038V6.60664V6.60947V6.61231V6.61514V6.61798V6.62081V6.62365V6.62648V6.62932V6.63215V6.63499V6.63782V6.64066V6.6435V6.64633V6.64917V6.652V6.65484V6.65768V6.66051V6.66335V6.66619V6.66902V6.67186V6.6747V6.67753V6.68037V6.68321V6.68605V6.68889V6.69172V6.69456V6.6974V6.70024V6.70308V6.70592V6.70876V6.7116V6.71444V6.71728V6.72012V6.72296V6.7258V6.72864V6.73149V6.73433V6.73717V6.74002V6.74286V6.7457V6.74855V6.75139V6.75424V6.75708V6.75993V6.76277V6.76562V6.76847V6.77131V6.77416V6.77701V6.77986V6.78271V6.78556V6.78841V6.79126V6.79411V6.79696V6.79981V6.80266V6.80552V6.80837V6.81122V6.81408V6.81693V6.81979V6.82264V6.8255V6.82836V6.83122V6.83407V6.83693V6.83979V6.84265V6.84551V6.84837V6.85124V6.8541V6.85696V6.85982V6.86269V6.86555V6.86842V6.87129V6.87415V6.87702V6.87989V6.88276V6.88563V6.8885V6.89137V6.89424V6.89711V6.89999V6.90286V6.90574V6.90861V6.91149V6.91437V6.91724V6.92012V6.923V6.92588V6.92876V6.93165V6.93453V6.93741V6.9403V6.94318V6.94607V6.94896V6.95184V6.95473V6.95762V6.96051V6.9634V6.9663V6.96919V6.97208V6.97498V6.97788V6.98077V6.98367V6.98657V6.98947V6.99237V6.99527V6.99818V7.00108V7.00398V7.00689V7.0098V7.0127V7.01561V7.01852V7.02143V7.02435V7.02726V7.03017V7.03309V7.03601V7.03892V7.04184V7.04476V7.04768V7.0506V7.05353V7.05645V7.05937V7.0623V7.06523V7.06816V7.07109V7.07402V7.07695V7.07988V7.08282V7.08575V7.08869V7.09163V7.09457V7.09751V7.10045V7.10339V7.10634V7.10928V7.11223V7.11518V7.11813V7.12108V7.12403V7.12698V7.12994V7.13289V7.13585V7.13881V7.14177V7.14473V7.14769V7.15066V7.15362V7.15659V7.15956V7.16253V7.1655V7.16847V7.17144V7.17442V7.17739V7.18037V7.18335V7.18633V7.18931V7.1923V7.19528V7.19827V7.20126V7.20425V7.20724V7.21023V7.21323V7.21622V7.21922V7.22222V7.22522V7.22822V7.23122V7.23423V7.23723V7.24024V7.24325V7.24626V7.24927V7.25229V7.25531V7.25832V7.26134V7.26436V7.26739V7.27041V7.27343V7.27646V7.27949V7.28252V7.28555V7.28859V7.29162V7.29466V7.2977V7.30074V7.30379V7.30683V7.30988V7.31292V7.31597V7.31902V7.32208V7.32513V7.32819V7.33125V7.33431V7.33737V7.34043V7.3435V7.34657V7.34964V7.35271V7.35578V7.35886V7.36193V7.36501V7.36809V7.37118V7.37426V7.37735V7.38043V7.38352V7.38662V7.38971V7.39281V7.3942C21.3031 7.39435 21.4856 7.39462 21.6665 7.3949C22.3535 7.39595 23.0179 7.39696 23.6829 7.39057L23.683 7.39057C23.9912 7.3877 24.3021 7.44165 24.5408 7.61389C24.7946 7.79693 24.9269 8.08386 24.9236 8.45226L24.9236 8.45232C24.9186 8.99569 24.9209 9.54276 24.9233 10.0918C24.93 11.7076 24.9369 13.3407 24.7595 14.948L24.511 14.9206L24.7595 14.948C24.4357 17.8801 21.5593 20.0926 18.5335 20.0999L18.5333 20.0999C15.5103 20.1054 12.6035 17.896 12.2795 14.9782C12.0963 13.3368 12.105 11.6686 12.1136 10.0195C12.1164 9.47962 12.1192 8.94182 12.1153 8.4077L12.1153 8.40746C12.113 8.05616 12.249 7.78331 12.4947 7.60931C12.7261 7.44543 13.0249 7.39042 13.3193 7.39233C13.9922 7.39611 14.6647 7.3954 15.3394 7.39468C15.5269 7.39447 15.7145 7.39427 15.9023 7.39417V7.39331V7.39021V7.38711V7.38402V7.38092V7.37783V7.37474V7.37165V7.36856V7.36547V7.36239V7.3593V7.35622V7.35314V7.35006V7.34699V7.34391V7.34084V7.33777V7.3347V7.33163V7.32856V7.3255V7.32243V7.31937V7.31631V7.31326V7.3102V7.30714V7.30409V7.30104V7.29799V7.29494V7.29189V7.28885V7.2858V7.28276V7.27972V7.27668V7.27365V7.27061V7.26758V7.26454V7.26151V7.25848V7.25546V7.25243V7.24941V7.24638V7.24336V7.24034V7.23732V7.23431V7.23129V7.22828V7.22526V7.22225V7.21924V7.21624V7.21323V7.21023V7.20722V7.20422V7.20122V7.19822V7.19523V7.19223V7.18924V7.18624V7.18325V7.18026V7.17727V7.17429V7.1713V7.16832V7.16533V7.16235V7.15937V7.15639V7.15342V7.15044V7.14747V7.1445V7.14153V7.13856V7.13559V7.13262V7.12965V7.12669V7.12373V7.12077V7.11781V7.11485V7.11189V7.10893V7.10598V7.10303V7.10008V7.09712V7.09418V7.09123V7.08828V7.08534V7.08239V7.07945V7.07651V7.07357V7.07063V7.06769V7.06476V7.06182V7.05889V7.05596V7.05303V7.0501V7.04717V7.04424V7.04132V7.03839V7.03547V7.03255V7.02963V7.02671V7.02379V7.02088V7.01796V7.01505V7.01213V7.00922V7.00631V7.0034V7.00049V6.99759V6.99468V6.99178V6.98887V6.98597V6.98307V6.98017V6.97727V6.97438V6.97148V6.96859V6.96569V6.9628V6.95991V6.95702V6.95413V6.95124V6.94836V6.94547V6.94259V6.9397V6.93682V6.93394V6.93106V6.92818V6.9253V6.92243V6.91955V6.91668V6.9138V6.91093V6.90806V6.90519V6.90232V6.89945V6.89659V6.89372V6.89086V6.88799V6.88513V6.88227V6.87941V6.87655V6.87369V6.87083V6.86798V6.86512V6.86227V6.85942V6.85656V6.85371V6.85086V6.84801V6.84516V6.84232V6.83947V6.83663V6.83378V6.83094V6.8281V6.82526V6.82242V6.81958V6.81674V6.8139V6.81107V6.80823V6.8054V6.80256V6.79973V6.7969V6.79407V6.79124V6.78841V6.78558V6.78275V6.77993V6.7771V6.77428V6.77145V6.76863V6.76581V6.76299V6.76017V6.75735V6.75453V6.75172V6.7489V6.74608V6.74327V6.74046V6.73764V6.73483V6.73202V6.72921V6.7264V6.72359V6.72078V6.71798V6.71517V6.71236V6.70956V6.70676V6.70395V6.70115V6.69835V6.69555V6.69275V6.68995V6.68715V6.68435V6.68156V6.67876V6.67597V6.67317V6.67038V6.66758V6.66479V6.662V6.65921V6.65642V6.65363V6.65084V6.64805V6.64527V6.64248V6.6397V6.63691V6.63413V6.63134V6.62856V6.62578V6.623V6.62022V6.61744V6.61466V6.61188V6.6091V6.60632V6.60354V6.60077V6.59799V6.59522V6.59244V6.58967V6.5869V6.58412V6.58135V6.57858V6.57581V6.57304V6.57027V6.5675V6.56474V6.56197V6.5592V6.55644V6.55367V6.5509V6.54814V6.54538V6.54261V6.53985V6.53709V6.53433V6.53156V6.5288V6.52604V6.52328V6.52053V6.51777V6.51501V6.51225V6.50949V6.50674V6.50398V6.50123V6.49847V6.49572V6.49296V6.49021V6.48746V6.48471V6.48195V6.4792V6.47645V6.4737V6.47095V6.4682V6.46545V6.4627V6.45995V6.45721V6.45446V6.45171V6.44897V6.44622V6.44347V6.44073V6.43798V6.43524V6.4325V6.42975V6.42701V6.42427V6.42152V6.41878V6.41604V6.4133V6.41056V6.40782V6.40508V6.40234V6.3996V6.39686V6.39412V6.39138V6.38864V6.38591V6.38317V6.38043V6.3777V6.37496V6.37222V6.37044C15.8918 6.36924 15.8839 6.36881 15.8771 6.36881H15.8766C15.6256 6.3683 15.3752 6.36722 15.1251 6.36613C14.5016 6.36343 13.8802 6.36074 13.258 6.36703L24.2562 6.40522ZM24.2562 6.40522C25.1671 6.47403 25.9427 7.26046 25.9534 8.13675L25.9534 8.1368L24.2562 6.40522ZM19.0728 21.1852L19.2623 21.1379C19.3186 21.1239 19.3751 21.1085 19.4313 21.0932C19.5535 21.0599 19.674 21.027 19.7864 21.0098C22.9017 20.516 25.5052 18.031 25.8279 14.9599C25.8279 14.9599 25.8279 14.9598 25.8279 14.9598L26.0765 14.986L19.0728 21.1852ZM19.0728 21.1852V21.3805M19.0728 21.1852V21.3805M19.0728 21.3805C19.0728 21.6386 19.0654 21.9037 19.0579 22.1724C19.0406 22.793 19.0228 23.4332 19.0941 24.0514L19.0941 24.0517M19.0728 21.3805L19.0941 24.0517M19.0941 24.0517C19.2452 25.3489 20.3356 26.1742 21.6553 26.201L21.6554 26.201M19.0941 24.0517L21.6554 26.201M21.6554 26.201C22.2165 26.2122 22.7862 26.2099 23.3525 26.2077C23.7681 26.2061 24.1818 26.2044 24.5891 26.2081H24.5892M21.6554 26.201L24.5892 26.2081M24.5892 26.2081C26.2858 26.2229 27.5163 27.4159 27.5262 28.9908C27.536 30.5951 26.2986 31.8062 24.5565 31.8128C22.7949 31.8189 21.0336 31.8174 19.2795 31.8159C18.5018 31.8152 17.7255 31.8146 16.9512 31.8146H16.7954M24.5892 26.2081L16.7954 31.8146M16.7954 31.8146L16.7268 31.9544M16.7954 31.8146L16.7268 31.9544M16.7268 31.9544C16.2873 32.8494 15.7702 33.4484 15.1958 33.7817C14.6274 34.1115 13.9789 34.1953 13.2408 34.0167L13.2408 34.0167M16.7268 31.9544L13.2408 34.0167M13.2408 34.0167C11.8903 33.6902 11.0156 32.5582 11.055 31.2076L11.055 31.2075M13.2408 34.0167L11.055 31.2075M11.055 31.2075C11.0926 29.9116 12.0215 28.8245 13.351 28.5465L11.055 31.2075ZM26.2267 29.037C26.2106 29.8146 25.5904 30.5092 24.7576 30.5198C22.8765 30.5414 20.9945 30.5375 19.1209 30.5335L26.2267 29.037ZM26.2267 29.037C26.2427 28.2328 25.5976 27.5311 24.7308 27.4993L26.2267 29.037ZM16.7604 30.7804L16.6943 30.6323C16.3187 29.79 15.8239 29.1984 15.2602 28.8532C14.7003 28.5103 14.0554 28.3996 13.351 28.5465L16.7604 30.7804ZM16.7604 30.7804H16.9226M16.7604 30.7804H16.9226M16.9226 30.7804C17.6526 30.7804 18.3848 30.782 19.1187 30.7835C20.9929 30.7875 22.8776 30.7914 24.7605 30.7698L24.7608 30.7698M16.9226 30.7804L24.7608 30.7698M24.7608 30.7698C25.7397 30.7574 26.458 29.943 26.4766 29.0421L26.4766 29.042M24.7608 30.7698L26.4766 29.042M26.4766 29.042C26.4955 28.0986 25.7403 27.2862 24.74 27.2495L24.7398 27.2495M26.4766 29.042L24.7398 27.2495M24.7398 27.2495C24.1039 27.2265 23.4594 27.2305 22.8212 27.2344C22.4268 27.2368 22.0348 27.2392 21.6489 27.2352C19.5527 27.2119 18.0183 25.6835 17.9965 23.6119C17.9915 23.0971 17.9926 22.584 17.9937 22.0786C17.9942 21.8638 17.9947 21.6504 17.9947 21.4388V21.2519M24.7398 27.2495L17.9947 21.2519M17.9947 21.2519L17.8154 21.199M17.9947 21.2519L17.8154 21.199M17.8154 21.199C17.5627 21.1245 17.3209 21.0596 17.0871 20.9968C16.6087 20.8683 16.1642 20.7489 15.7303 20.5757L15.7301 20.5756M17.8154 21.199L15.7301 20.5756M15.7301 20.5756C12.8576 19.4324 11.0637 16.7912 11.0533 13.748L15.7301 20.5756ZM11.0551 8.56082L11.0551 8.56091C11.0461 10.2902 11.0479 12.0179 11.0533 13.7479L11.0551 8.56082ZM11.0551 8.56082C11.0584 7.86946 11.2782 7.33044 11.6476 6.96277M11.0551 8.56082L11.6476 6.96277M13.8807 33.0675C14.828 33.0756 15.6578 32.2727 15.6767 31.329L15.6767 31.3284C15.6935 30.3825 14.8979 29.5625 13.9451 29.5294C12.961 29.4944 12.0942 30.3302 12.1046 31.3123M13.8807 33.0675C12.9268 33.0612 12.1131 32.2645 12.1046 31.3123M13.8807 33.0675C13.8806 33.0675 13.8805 33.0675 13.8804 33.0675L13.8826 32.8175L13.881 33.0675C13.8809 33.0675 13.8808 33.0675 13.8807 33.0675ZM12.1046 31.3123C12.1046 31.3122 12.1046 31.3122 12.1046 31.3121L12.3546 31.3099L12.1046 31.3125C12.1046 31.3125 12.1046 31.3124 12.1046 31.3123ZM11.6476 6.96277C12.0173 6.59483 12.5612 6.37446 13.2578 6.36703L11.6476 6.96277ZM12.3653 8.40586C12.3693 8.94709 12.3665 9.48941 12.3636 10.032C12.3551 11.6775 12.3465 13.325 12.5279 14.9506L12.3653 8.40586Z" fill="#2D2DC1" stroke="#2D2DC1" stroke-width="0.5"/>
<path d="M13.8838 32.5676L13.8832 32.5675C13.1953 32.5631 12.6095 31.98 12.6036 31.3077L12.6036 31.3073C12.5962 30.614 13.2234 30.0042 13.9264 30.0292L13.9266 30.0292C14.6128 30.0529 15.1876 30.654 15.1758 31.3196C15.164 31.9868 14.5597 32.5734 13.8838 32.5676Z" fill="white" stroke="#2D2DC1" stroke-width="0.5"/>
</g>
<defs>
<clipPath id="clip0_286_2498">
<rect width="37" height="49" fill="white"/>
</clipPath>
</defs>
</svg>
