<svg width="40" height="39" viewBox="0 0 40 39" fill="none" xmlns="http://www.w3.org/2000/svg">
<path d="M38.5317 28.1164V28.2896C38.5317 28.4523 38.5317 28.6739 38.5297 28.8937C38.5297 28.8938 38.5297 28.894 38.5297 28.8941L38.4047 28.8929C38.4047 29.3485 38.4014 29.8041 38.3981 30.2597C38.39 31.3863 38.3819 32.5127 38.4234 33.638L38.5317 28.1164ZM38.5317 28.1164L38.3673 28.171C31.1298 30.5758 23.976 30.5923 16.741 28.1711L16.5764 28.116V28.2896V28.2906V28.2915V28.2925V28.2934V28.2944V28.2954V28.2963V28.2973V28.2982V28.2992V28.3002V28.3011V28.3021V28.3031V28.3041V28.305V28.306V28.307V28.308V28.309V28.3099V28.3109V28.3119V28.3129V28.3139V28.3149V28.3158V28.3168V28.3178V28.3188V28.3198V28.3208V28.3218V28.3228V28.3238V28.3248V28.3258V28.3268V28.3278V28.3288V28.3298V28.3308V28.3318V28.3328V28.3339V28.3349V28.3359V28.3369V28.3379V28.3389V28.3399V28.341V28.342V28.343V28.344V28.3451V28.3461V28.3471V28.3481V28.3492V28.3502V28.3512V28.3523V28.3533V28.3543V28.3554V28.3564V28.3574V28.3585V28.3595V28.3606V28.3616V28.3626V28.3637V28.3647V28.3658V28.3668V28.3679V28.3689V28.37V28.371V28.3721V28.3731V28.3742V28.3753V28.3763V28.3774V28.3784V28.3795V28.3806V28.3816V28.3827V28.3838V28.3848V28.3859V28.387V28.388V28.3891V28.3902V28.3913V28.3923V28.3934V28.3945V28.3956V28.3966V28.3977V28.3988V28.3999V28.401V28.402V28.4031V28.4042V28.4053V28.4064V28.4075V28.4086V28.4097V28.4108V28.4119V28.4129V28.414V28.4151V28.4162V28.4173V28.4184V28.4195V28.4206V28.4217V28.4228V28.424V28.4251V28.4262V28.4273V28.4284V28.4295V28.4306V28.4317V28.4328V28.4339V28.4351V28.4362V28.4373V28.4384V28.4395V28.4406V28.4418V28.4429V28.444V28.4451V28.4462V28.4474V28.4485V28.4496V28.4508V28.4519V28.453V28.4541V28.4553V28.4564V28.4575V28.4587V28.4598V28.4609V28.4621V28.4632V28.4644V28.4655V28.4666V28.4678V28.4689V28.4701V28.4712V28.4723V28.4735V28.4746V28.4758V28.4769V28.4781V28.4792V28.4804V28.4815V28.4827V28.4838V28.485V28.4861V28.4873V28.4885V28.4896V28.4908V28.4919V28.4931V28.4943V28.4954V28.4966V28.4977V28.4989V28.5001V28.5012V28.5024V28.5036V28.5047V28.5059V28.5071V28.5082V28.5094V28.5106V28.5118V28.5129V28.5141V28.5153V28.5165V28.5176V28.5188V28.52V28.5212V28.5224V28.5235V28.5247V28.5259V28.5271V28.5283V28.5294V28.5306V28.5318V28.533V28.5342V28.5354V28.5366V28.5378V28.5389V28.5401V28.5413V28.5425V28.5437V28.5449V28.5461V28.5473V28.5485V28.5497V28.5509V28.5521V28.5533V28.5545V28.5557V28.5569V28.5581V28.5593V28.5605V28.5617V28.5629V28.5641V28.5653V28.5665V28.5677V28.5689V28.5701V28.5713V28.5725V28.5737V28.575V28.5762V28.5774V28.5786V28.5798V28.581V28.5822V28.5834V28.5847V28.5859V28.5871V28.5883V28.5895V28.5907V28.592V28.5932V28.5944V28.5956V28.5968V28.5981V28.5993V28.6005V28.6017V28.603V28.6042V28.6054V28.6066V28.6079V28.6091V28.6103V28.6115V28.6128V28.614V28.6152V28.6165V28.6177V28.6189V28.6202V28.6214V28.6226V28.6239V28.6251V28.6263V28.6276V28.6288V28.63V28.6313V28.6325V28.6337V28.635V28.6362V28.6375V28.6387V28.6399V28.6412V28.6424V28.6437V28.6449V28.6461V28.6474V28.6486V28.6499V28.6511V28.6524V28.6536V28.6549V28.6561V28.6573V28.6586V28.6598V28.6611V28.6623V28.6636V28.6648V28.6661V28.6673V28.6686V28.6698V28.6711V28.6723V28.6736V28.6748V28.6761V28.6774V28.6786V28.6799V28.6811V28.6824V28.6836V28.6849V28.6861V28.6874V28.6887V28.6899V28.6912V28.6924V28.6937V28.6949V28.6962V28.6975V28.6987V28.7V28.7012V28.7025V28.7038V28.705V28.7063V28.7076V28.7088V28.7101V28.7113V28.7126V28.7139V28.7151V28.7164V28.7177V28.7189V28.7202V28.7215V28.7227V28.724V28.7253V28.7265V28.7278V28.7291V28.7303V28.7316V28.7329V28.7341V28.7354V28.7367V28.738V28.7392V28.7405V28.7418V28.743V28.7443V28.7456V28.7469V28.7481V28.7494V28.7507V28.7519V28.7532V28.7545V28.7558V28.757V28.7583V28.7596V28.7609V28.7621V28.7634V28.7647V28.766V28.7672V28.7685V28.7698V28.7711V28.7724V28.7736V28.7749V28.7762V28.7775V28.7787V28.78V28.7813V28.7826V28.7838V28.7851V28.7864V28.7877V28.789V28.7902V28.7915V28.7928V28.7941V28.7954V28.7966V28.7979V28.7992V28.8005V28.8018V28.803V28.8043V28.8056V28.8069V28.8082V28.8095V28.8107V28.812V28.8133V28.8146V28.8159V28.8171V28.8184V28.8197V28.821V28.8223V28.8236V28.8248V28.8261V28.8274V28.8287V28.83V28.8313V28.8325V28.8338V28.8351V28.8364V28.8377V28.839V28.8402V28.8415V28.8428V28.8441V28.8454V28.8467V28.848V28.8492V28.8505V28.8518V28.8531V28.8544V28.8557V28.8569V28.8582V28.8595V28.8608V28.8621V28.8634V28.8647V28.8659V28.8672V28.8685V28.8698V28.8711V28.8724V28.8736V28.8749V28.8762V28.8775V28.8788V28.8801V28.8814V28.8826V28.8839V28.8852V28.8865V28.8878V28.8891V28.8903V28.8916V28.8929V28.9011V28.9093V28.9174V28.9256V28.9338V28.9419V28.9501V28.9583V28.9665V28.9746V28.9828V28.991V28.9991V29.0073V29.0155V29.0237V29.0318V29.04V29.0482V29.0563V29.0645V29.0727V29.0808V29.089V29.0972V29.1054V29.1135V29.1217V29.1299V29.138V29.1462V29.1544V29.1626V29.1707V29.1789V29.1871V29.1952V29.2034V29.2116V29.2198V29.2279V29.2361V29.2443V29.2524V29.2606V29.2688V29.277V29.2851V29.2933V29.3015V29.3096V29.3178V29.326V29.3341V29.3423V29.3505V29.3587V29.3668V29.375V29.3832V29.3913V29.3995V29.4077V29.4159V29.424V29.4322V29.4404V29.4485V29.4567V29.4649V29.4731V29.4812V29.4894V29.4976V29.5057V29.5139V29.5221V29.5303V29.5384V29.5466V29.5548V29.5629V29.5711V29.5793V29.5874V29.5956V29.6038V29.612V29.6201V29.6283V29.6365V29.6446V29.6528V29.661V29.6692V29.6773V29.6855V29.6937V29.7018V29.71V29.7182V29.7264V29.7345V29.7427V29.7509V29.759V29.7672V29.7754V29.7835V29.7917V29.7999V29.8081V29.8162V29.8244V29.8326V29.8407V29.8489V29.8571V29.8653V29.8734V29.8816V29.8898V29.8979V29.9061V29.9143V29.9225V29.9306V29.9388V29.947V29.9551V29.9633V29.9715V29.9797V29.9878V29.996V30.0042V30.0123V30.0205V30.0287V30.0368V30.045V30.0532V30.0614V30.0695V30.0777V30.0859V30.094V30.1022V30.1104V30.1186V30.1267V30.1349V30.1431V30.1512V30.1594V30.1676V30.1758V30.1839V30.1921V30.2003V30.2084V30.2166V30.2248V30.233V30.2411V30.2493V30.2575V30.2656V30.2738V30.282V30.2901V30.2983V30.3065V30.3147V30.3228V30.331V30.3392V30.3473V30.3555V30.3637V30.3719V30.38V30.3882V30.3964V30.4045V30.4127V30.4209V30.4291V30.4372V30.4454V30.4536V30.4617V30.4699V30.4781V30.4862V30.4944V30.5026V30.5108V30.5189V30.5271V30.5353V30.5434V30.5516V30.5598V30.568V30.5761V30.5843V30.5925V30.6006V30.6088V30.617V30.6252V30.6333V30.6415V30.6497V30.6578V30.666V30.6742V30.6824V30.6905V30.6987V30.7069V30.715V30.7232V30.7314V30.7395V30.7477V30.7559V30.7641V30.7722V30.7804V30.7886V30.7967V30.8049V30.8131V30.8213V30.8294V30.8376V30.8458V30.8539V30.8621V30.8703V30.8785V30.8866V30.8948V30.903V30.9111V30.9193V30.9275V30.9357V30.9438V30.952V30.9602V30.9683V30.9765V30.9847V30.9928V31.001V31.0092V31.0174V31.0255V31.0337V31.0419V31.05V31.0582V31.0664V31.0746V31.0827V31.0909V31.0991V31.1072V31.1154V31.1236V31.1318V31.1399V31.1481V31.1563V31.1644V31.1726V31.1808V31.189V31.1971V31.2053V31.2135V31.2216V31.2298V31.238V31.2461V31.2543V31.2625V31.2707V31.2788V31.287V31.2952V31.3033V31.3115V31.3197V31.3279V31.336V31.3442V31.3524V31.3605V31.3687V31.3769V31.3851V31.3932V31.4014V31.4096V31.4177V31.4259V31.4341V31.4423V31.4504V31.4586V31.4668V31.4749V31.4831V31.4913V31.4994V31.5076V31.5158V31.524V31.5321V31.5403V31.5485V31.5566V31.5648V31.573V31.5812V31.5893V31.5975V31.6057V31.6138V31.622V31.6302V31.6384V31.6465V31.6547V31.6629V31.671V31.6792V31.6874V31.6956V31.7037V31.7119V31.7201V31.7282V31.7364V31.7446V31.7527V31.7609V31.7691V31.7773V31.7854V31.7936V31.8018V31.8099V31.8181V31.8263V31.8345V31.8426V31.8508V31.859V31.8671V31.8753V31.8835V31.8917V31.8998V31.908V31.9162V31.9243V31.9325V31.9407V31.9488V31.957V31.9652V31.9734V31.9815V31.9897V31.9979V32.006V32.0142V32.0224V32.0306V32.0387V32.0469V32.0551V32.0632V32.0714V32.0796V32.0878V32.0959V32.1041V32.1123V32.1204V32.1286V32.1368V32.145V32.1531V32.1613V32.1695V32.1776V32.1858V32.194V32.2021V32.2103V32.2185V32.2267V32.2348V32.243V32.2512V32.2593V32.2675V32.2757V32.2839V32.292V32.3002V32.3084V32.3165V32.3247V32.3329V32.3411V32.3492V32.3574V32.3656V32.3737V32.3819V32.3901V32.3983V32.4064V32.4146V32.4228V32.4309V32.4391V32.4473V32.4554V32.4636V32.4718V32.48V32.4881V32.4963V32.5045V32.5126V32.5208V32.529V32.5372V32.5453V32.5535V32.5617V32.5698V32.578V32.5862V32.5944V32.6025V32.6107V32.6189V32.627V32.6352V32.6434V32.6516V32.6597V32.6679V32.6761V32.6842V32.6924V32.7006V32.7087V32.7169V32.7251V32.7333V32.7414V32.7496V32.7578V32.7659V32.7741V32.7823V32.7905V32.7986V32.8068V32.815V32.8231V32.8313V32.8395V32.8477V32.8558V32.864V32.8722V32.8803V32.8885V32.8967V32.9049V32.913V32.9212V32.9294V32.9375V32.9457V32.9539V32.962V32.9702V32.9784V32.9866V32.9947V33.0029V33.0111V33.0192V33.0274V33.0356V33.0438V33.0519V33.0601V33.0683V33.0764C16.5764 33.4861 16.5812 33.8091 16.6135 34.0695C16.646 34.3317 16.7075 34.5411 16.8276 34.7193C16.9478 34.8975 17.1189 35.033 17.3497 35.1614C17.5788 35.2889 17.8761 35.4143 18.2554 35.5678M38.5317 28.1164L18.3029 35.4521M18.55 35.6823C20.8975 36.5365 23.3506 36.7793 25.7991 36.9067C28.4275 37.0428 31.0617 36.9446 33.6501 36.4201C34.8034 36.1863 35.9272 35.7916 37.036 35.4021C37.2143 35.3395 37.3923 35.277 37.5699 35.2153L37.5699 35.2153C37.9138 35.0957 38.1705 34.9006 38.335 34.6279C38.4983 34.3571 38.5635 34.0218 38.5483 33.6334L18.5927 35.5648M18.55 35.6823L18.5927 35.5648M18.55 35.6823C18.55 35.6823 18.5501 35.6824 18.5501 35.6824L18.5927 35.5648M18.55 35.6823C18.4501 35.6461 18.3526 35.6079 18.2554 35.5678M18.5927 35.5648C18.4947 35.5294 18.3988 35.4918 18.3029 35.4521M18.2554 35.5678C18.2556 35.5678 18.2558 35.5679 18.256 35.568L18.3029 35.4521M18.2554 35.5678C18.2553 35.5677 18.2552 35.5677 18.2551 35.5676L18.3029 35.4521M21.6575 23.77C20.142 24.0329 18.6144 24.3427 17.2571 25.1813C17.0512 25.3082 16.8874 25.4352 16.7737 25.5642C16.66 25.6931 16.588 25.8337 16.5873 25.9846C16.5866 26.1376 16.6591 26.2747 16.7792 26.395C16.8981 26.514 17.0705 26.624 17.29 26.7283L17.2903 26.7284C18.34 27.2233 19.4593 27.5804 20.5672 27.9105C20.9575 28.0268 21.4505 27.923 21.8188 27.7845L21.8189 27.7845C22.4324 27.5532 23.0327 27.2803 23.629 27.0093C23.8658 26.9017 24.102 26.7944 24.338 26.69L24.3382 26.69C26.059 25.9267 27.7797 25.1661 29.5714 24.3741C30.0485 24.1631 30.5307 23.95 31.0192 23.734L31.3731 23.5775L30.9946 23.4974C30.9176 23.4811 30.8617 23.4685 30.8174 23.4584C30.7996 23.4544 30.7836 23.4508 30.7689 23.4475C30.7191 23.4365 30.6808 23.4289 30.6393 23.4261C27.6359 23.2064 24.6373 23.2522 21.6575 23.77ZM21.6575 23.77L21.6789 23.8932L21.6575 23.77C21.6575 23.77 21.6575 23.77 21.6575 23.77ZM30.9687 23.6197C30.9041 23.6482 30.8396 23.6767 30.7752 23.7052C30.8179 23.7148 30.8724 23.7271 30.9428 23.742L30.9687 23.6197ZM30.9687 23.6197L30.9181 23.5054C30.8662 23.5283 30.8143 23.5513 30.7625 23.5742C30.7708 23.576 30.7795 23.578 30.7889 23.5801C30.8334 23.5902 30.8908 23.6032 30.9687 23.6197ZM33.2729 24.3044L33.2131 24.1946C32.6493 24.5013 32.0578 24.7494 31.4592 25.0004C31.1962 25.1107 30.9319 25.2216 30.6679 25.3382C28.5826 26.2589 26.4973 27.1816 24.4141 28.1043L24.3356 28.1391L24.8255 28.4169L24.8211 28.5419C24.8211 28.5419 24.8211 28.5419 24.8211 28.5419C27.9241 28.6525 31.0434 28.691 34.1072 28.0045L34.1073 28.0045C35.3992 27.7138 36.6589 27.2279 37.8634 26.6898C38.0703 26.5974 38.234 26.4932 38.3478 26.377C38.4626 26.2597 38.5316 26.1246 38.5325 25.9763C38.5334 25.8288 38.4667 25.6912 38.3568 25.5687C38.2472 25.4466 38.0891 25.3325 37.8896 25.2272C37.1229 24.8224 36.2946 24.5303 35.4823 24.2438C35.438 24.2282 35.3938 24.2126 35.3497 24.197L35.3496 24.197C34.6823 23.9617 33.9767 23.7766 33.2128 24.1948L33.2729 24.3044ZM33.2729 24.3044C32.7032 24.6143 32.1022 24.8663 31.5009 25.1186C31.2393 25.2283 30.9776 25.338 30.7184 25.4526C28.6332 26.3732 26.5479 27.2959 24.4648 28.2186L33.2729 24.3044ZM23.7365 21.9301L23.6244 22.1292L23.8526 22.1162C24.0662 22.1039 24.2669 22.092 24.459 22.0805C24.8589 22.0566 25.2213 22.035 25.5841 22.0181C29.4815 21.8369 33.3241 22.0728 37.0447 23.331L37.0447 23.331C37.4067 23.4532 37.7583 23.6248 38.1113 23.8005L38.1114 23.8005C38.7081 24.0967 39.1597 24.4563 39.4567 24.9127C39.753 25.368 39.9024 25.9302 39.877 26.6443C39.7914 29.0613 39.829 31.484 39.8666 33.8988V33.8989C39.8746 34.3948 39.7747 34.8117 39.5786 35.1679C39.3823 35.5246 39.0857 35.8273 38.6902 36.0889L38.6902 36.089C37.2966 37.0115 35.7041 37.4026 34.0718 37.7049C30.5635 38.3516 27.0243 38.4018 23.4801 38.0583C21.4381 37.8603 19.4196 37.5382 17.5433 36.6889C17.1145 36.4947 16.7127 36.2507 16.28 35.9879C16.0781 35.8653 15.8695 35.7387 15.6482 35.611L15.5713 35.5667L15.5041 35.6247L15.1726 35.9107L15.1722 35.911C12.6336 38.1162 9.72278 38.8182 6.5236 37.8625C3.24039 36.8822 1.19234 34.624 0.378572 31.2725C-0.190678 28.9251 0.216985 26.7178 1.41631 24.6404L1.41637 24.6403C2.23132 23.2259 3.04588 21.8112 3.86045 20.3965C6.87274 15.1648 9.88521 9.93292 12.9184 4.71258C14.6463 1.73945 17.2838 0.168994 20.7025 0.125723C25.3116 0.0680961 28.979 3.46146 29.621 7.79738C29.9518 10.0335 29.4291 12.0551 28.3062 13.981L28.3062 13.981C27.3507 15.6229 26.4046 17.2698 25.4586 18.9165C25.0067 19.7031 24.5549 20.4896 24.102 21.2755L24.1012 21.2771C24.0751 21.3238 24.0492 21.3704 24.0223 21.4189C23.9454 21.557 23.8599 21.7109 23.7365 21.9301ZM21.7081 22.346L21.7781 22.3864L21.8437 22.3391C21.8818 22.3117 21.9102 22.2937 21.935 22.2781C21.9418 22.2739 21.9483 22.2697 21.9546 22.2657L21.9563 22.2646C21.9805 22.2491 22.0217 22.2227 22.0479 22.1768C22.5985 21.2192 23.1561 20.2643 23.714 19.3088C25.0429 17.0327 26.3734 14.7539 27.6153 12.4307L27.6153 12.4307C29.1662 9.52753 28.4168 5.81385 26.0481 3.56339L26.048 3.56333C22.3926 0.0949033 16.6706 0.954008 14.0539 5.38578L14.0539 5.38579C12.8141 7.48592 11.6022 9.60313 10.3909 11.7192C9.88849 12.597 9.38615 13.4746 8.88197 14.3507C8.84702 14.4108 8.82211 14.4735 8.80002 14.535C8.79118 14.5596 8.78311 14.5831 8.77505 14.6065C8.76167 14.6453 8.74832 14.684 8.73155 14.7279L8.69354 14.8274L8.78579 14.8807C9.90404 15.5268 11.0202 16.1718 12.135 16.8161C15.3316 18.6633 18.517 20.5041 21.7081 22.346ZM8.11222 16.0191L8.01831 15.9648L7.95134 16.0502C7.92164 16.088 7.89696 16.1181 7.87423 16.1458C7.86207 16.1606 7.85047 16.1747 7.83896 16.189C7.80756 16.228 7.77858 16.2659 7.75375 16.3091C7.29494 17.1037 6.83523 17.8981 6.37549 18.6925C5.05531 20.9736 3.73476 23.2555 2.43382 25.5474L2.4338 25.5475C1.50327 27.1878 1.2294 28.9602 1.63424 30.815C2.2837 33.8054 4.09876 35.8202 7.01706 36.6392L7.0171 36.6392C10.0366 37.4856 12.6993 36.6485 14.8332 34.3323L14.8334 34.3321C15.0665 34.0779 15.2183 33.6635 15.2228 33.3203C15.2269 33.007 15.2315 32.6935 15.236 32.3799C15.2639 30.4654 15.2919 28.5449 15.2165 26.6292C15.1891 25.9267 15.3355 25.3698 15.6261 24.9197C15.9174 24.4686 16.3605 24.1145 16.9438 23.8302L16.9439 23.8301C17.476 23.5701 18.0272 23.3567 18.608 23.1318C18.88 23.0265 19.1586 22.9187 19.4447 22.8023L19.6813 22.7061L19.4602 22.5783C17.344 21.3554 15.2409 20.1397 13.1344 18.922C11.4651 17.9571 9.79379 16.991 8.11222 16.0191Z" fill="#2D2DC1" stroke="#2D2DC1" stroke-width="0.25"/>
<path d="M16.083 7.19355L16.0444 7.19251C15.6634 7.18226 15.3544 7.02659 15.1758 6.79238C14.9957 6.55617 14.9551 6.24682 15.1051 5.96144L15.1052 5.96126C15.984 4.29531 17.3784 3.26105 19.1964 2.82305C19.4285 2.76651 19.6506 2.79251 19.8344 2.90012C20.0181 3.0077 20.1515 3.18978 20.2194 3.42318L20.2195 3.42351C20.2885 3.66302 20.2823 3.90223 20.1882 4.10408C20.093 4.3083 19.9136 4.46136 19.6632 4.53422L16.083 7.19355ZM16.083 7.19355L16.1154 7.17267M16.083 7.19355L16.1154 7.17267M16.1154 7.17267C16.128 7.16459 16.152 7.15311 16.195 7.13354L16.2026 7.13007C16.2405 7.11285 16.2869 7.09173 16.3344 7.06684C16.4331 7.01511 16.5551 6.93792 16.6306 6.81962L16.6307 6.81943M16.1154 7.17267L16.6307 6.81943M16.6307 6.81943C17.3612 5.67143 18.356 4.916 19.6631 4.53424L16.6307 6.81943ZM21.7509 2.68994L21.7509 2.69042C21.98 2.70563 22.183 2.78693 22.3334 2.94065C22.4836 3.09417 22.5705 3.30872 22.5888 3.5705C22.626 4.08956 22.1955 4.4735 21.6778 4.46406C21.6778 4.46406 21.6778 4.46406 21.6777 4.46406L21.68 4.33908L21.7509 2.68994ZM21.7509 2.68994L21.74 2.69017C21.1808 2.70178 20.7404 3.12362 20.7882 3.63467L21.7509 2.68994ZM9.10136 14.4767L9.1017 14.4761C9.6066 13.5988 10.1094 12.7204 10.6121 11.8421C11.823 9.72665 13.0335 7.6118 14.2724 5.51322L14.2724 5.51321C16.8105 1.21258 22.3446 0.389226 25.8749 3.74495L25.8749 3.74497C28.1689 5.92441 28.8895 9.51518 27.3939 12.3132L27.3939 12.3132C26.1551 14.6322 24.8292 16.9025 23.5021 19.1749C22.9442 20.1302 22.3861 21.0859 21.8341 22.0458C21.8313 22.0479 21.8262 22.0516 21.8178 22.0571C21.8124 22.0607 21.806 22.0648 21.7986 22.0695C21.7893 22.0755 21.7784 22.0825 21.7662 22.0905C17.5173 19.6347 13.2742 17.183 9.00497 14.7171C9.00971 14.7035 9.01428 14.6903 9.01869 14.6775C9.02572 14.6572 9.03235 14.638 9.03859 14.6205C9.05931 14.5626 9.07812 14.5166 9.10136 14.4767Z" fill="white" stroke="#2D2DC1" stroke-width="0.25"/>
<path d="M14.9644 26.6392L14.9644 26.6393C15.0413 28.5946 15.0118 30.5548 14.9823 32.5167C14.9783 32.7834 14.9743 33.0502 14.9705 33.3171L14.9705 33.3172C14.9667 33.6043 14.835 33.958 14.6471 34.1631C12.5708 36.4146 10.0057 37.2182 7.08229 36.3987L7.08225 36.3987C4.25789 35.6082 2.50715 33.6671 1.87626 30.7621C1.48658 28.9676 1.74871 27.258 2.64895 25.6711C3.94931 23.3801 5.26906 21.0997 6.58905 18.8189C7.04893 18.0242 7.50884 17.2295 7.96797 16.4343L7.96807 16.4341C7.98246 16.4091 8.00143 16.3839 8.03172 16.3469C8.03976 16.3371 8.04866 16.3264 8.05832 16.3148C8.06502 16.3067 8.07209 16.2982 8.07949 16.2893C11.7769 18.4262 15.4258 20.536 19.1105 22.6664C18.9143 22.7444 18.7199 22.8196 18.5276 22.8941C17.9412 23.1212 17.3737 23.341 16.8319 23.6057C16.2205 23.9038 15.7366 24.2845 15.4138 24.7843C15.0904 25.2851 14.9354 25.8951 14.9644 26.6392Z" fill="white" stroke="#2D2DC1" stroke-width="0.25"/>
<path d="M37.5306 35.0995C37.3522 35.1614 37.1738 35.2241 36.9953 35.2868C35.8859 35.6764 34.7712 36.0679 33.627 36.2999C31.0517 36.8218 28.4264 36.922 25.8073 36.7842C23.3613 36.6568 20.9237 36.4147 18.5944 35.5671C18.4964 35.5316 18.4005 35.4941 18.3046 35.4544C16.7824 34.8386 16.7031 34.7216 16.7031 33.0787V28.8952L16.7031 28.4237C16.7448 28.4376 16.7865 28.4514 16.8281 28.4651M37.5306 35.0995C38.1708 34.8761 38.4523 34.3855 38.4252 33.6403M37.5306 35.0995L37.4896 34.9814C37.4895 34.9814 37.4895 34.9815 37.4894 34.9815M37.5306 35.0995L37.4894 34.9815M38.4252 33.6403C38.3836 32.5149 38.3917 31.3886 38.3998 30.2619C38.4031 29.8063 38.4064 29.3508 38.4064 28.8952V28.4215C38.3647 28.4353 38.3231 28.449 38.2814 28.4626M38.4252 33.6403L38.3003 33.6448M38.4252 33.6403L38.3003 33.6449C38.3003 33.6449 38.3003 33.6448 38.3003 33.6448M38.2814 28.4626V28.4621V28.461V28.4599V28.4587V28.4576V28.4564V28.4553V28.4542V28.4531V28.4519V28.4508V28.4497V28.4485V28.4474V28.4463V28.4452V28.444V28.4429V28.4418V28.4407V28.4395V28.4384V28.4373V28.4362V28.4351V28.434V28.4328V28.4317V28.4306V28.4295V28.4284V28.4273V28.4262V28.4251V28.424V28.4228V28.4217V28.4206V28.4195V28.4184V28.4173V28.4162V28.4151V28.414V28.4129V28.4118V28.4107V28.4096V28.4085V28.4075V28.4064V28.4053V28.4042V28.4031V28.402V28.4009V28.3998V28.3987V28.3977V28.3966V28.3955V28.3944V28.3933V28.3923V28.3912V28.3901V28.389V28.3879V28.3869V28.3858V28.3847V28.3837V28.3826V28.3815V28.3804V28.3794V28.3783V28.3772V28.3762V28.3751V28.3741V28.373V28.3719V28.3709V28.3698V28.3688V28.3677V28.3667V28.3656V28.3645V28.3635V28.3624V28.3614V28.3603V28.3593V28.3583V28.3572V28.3562V28.3551V28.3541V28.353V28.352V28.351V28.3499V28.3489V28.3479V28.3468V28.3458V28.3448V28.3437V28.3427V28.3417V28.3406V28.3396V28.3386V28.3376V28.3365V28.3355V28.3345V28.3335V28.3325V28.3314V28.3311C31.1028 30.6895 24.0027 30.7057 16.8281 28.3335V28.3341V28.3351V28.3361V28.3371V28.3381V28.3391V28.3401V28.3412V28.3422V28.3432V28.3442V28.3452V28.3462V28.3473V28.3483V28.3493V28.3503V28.3514V28.3524V28.3534V28.3545V28.3555V28.3565V28.3575V28.3586V28.3596V28.3607V28.3617V28.3627V28.3638V28.3648V28.3659V28.3669V28.3679V28.369V28.37V28.3711V28.3721V28.3732V28.3742V28.3753V28.3763V28.3774V28.3784V28.3795V28.3806V28.3816V28.3827V28.3837V28.3848V28.3859V28.3869V28.388V28.3891V28.3901V28.3912V28.3923V28.3933V28.3944V28.3955V28.3966V28.3976V28.3987V28.3998V28.4009V28.4019V28.403V28.4041V28.4052V28.4063V28.4073V28.4084V28.4095V28.4106V28.4117V28.4128V28.4139V28.415V28.4161V28.4172V28.4182V28.4193V28.4204V28.4215V28.4226V28.4237V28.4248V28.4259V28.427V28.4281V28.4292V28.4303V28.4314V28.4326V28.4337V28.4348V28.4359V28.437V28.4381V28.4392V28.4403V28.4414V28.4426V28.4437V28.4448V28.4459V28.447V28.4481V28.4493V28.4504V28.4515V28.4526V28.4538V28.4549V28.456V28.4571V28.4583V28.4594V28.4605V28.4617V28.4628V28.4639V28.4651V28.4651M38.2814 28.4626C31.104 30.8122 24.002 30.8285 16.8281 28.4651M38.2814 28.4626V28.4633V28.4644V28.4655V28.4667V28.4678V28.469V28.4701V28.4713V28.4724V28.4735V28.4747V28.4758V28.477V28.4781V28.4793V28.4804V28.4816V28.4827V28.4839V28.4851V28.4862V28.4874V28.4885V28.4897V28.4908V28.492V28.4932V28.4943V28.4955V28.4966V28.4978V28.499V28.5001V28.5013V28.5025V28.5036V28.5048V28.506V28.5071V28.5083V28.5095V28.5106V28.5118V28.513V28.5142V28.5153V28.5165V28.5177V28.5189V28.52V28.5212V28.5224V28.5236V28.5248V28.5259V28.5271V28.5283V28.5295V28.5307V28.5319V28.533V28.5342V28.5354V28.5366V28.5378V28.539V28.5402V28.5414V28.5426V28.5438V28.5449V28.5461V28.5473V28.5485V28.5497V28.5509V28.5521V28.5533V28.5545V28.5557V28.5569V28.5581V28.5593V28.5605V28.5617V28.5629V28.5641V28.5653V28.5665V28.5677V28.5689V28.5702V28.5714V28.5726V28.5738V28.575V28.5762V28.5774V28.5786V28.5798V28.581V28.5823V28.5835V28.5847V28.5859V28.5871V28.5883V28.5895V28.5908V28.592V28.5932V28.5944V28.5956V28.5969V28.5981V28.5993V28.6005V28.6018V28.603V28.6042V28.6054V28.6067V28.6079V28.6091V28.6103V28.6116V28.6128V28.614V28.6152V28.6165V28.6177V28.6189V28.6202V28.6214V28.6226V28.6239V28.6251V28.6263V28.6276V28.6288V28.63V28.6313V28.6325V28.6337V28.635V28.6362V28.6375V28.6387V28.6399V28.6412V28.6424V28.6437V28.6449V28.6462V28.6474V28.6486V28.6499V28.6511V28.6524V28.6536V28.6549V28.6561V28.6574V28.6586V28.6599V28.6611V28.6624V28.6636V28.6649V28.6661V28.6674V28.6686V28.6699V28.6711V28.6724V28.6736V28.6749V28.6761V28.6774V28.6786V28.6799V28.6811V28.6824V28.6837V28.6849V28.6862V28.6874V28.6887V28.6899V28.6912V28.6925V28.6937V28.695V28.6962V28.6975V28.6988V28.7V28.7013V28.7026V28.7038V28.7051V28.7063V28.7076V28.7089V28.7101V28.7114V28.7127V28.7139V28.7152V28.7165V28.7177V28.719V28.7203V28.7215V28.7228V28.7241V28.7254V28.7266V28.7279V28.7292V28.7304V28.7317V28.733V28.7343V28.7355V28.7368V28.7381V28.7393V28.7406V28.7419V28.7432V28.7444V28.7457V28.747V28.7483V28.7495V28.7508V28.7521V28.7534V28.7547V28.7559V28.7572V28.7585V28.7598V28.761V28.7623V28.7636V28.7649V28.7662V28.7674V28.7687V28.77V28.7713V28.7726V28.7739V28.7751V28.7764V28.7777V28.779V28.7803V28.7815V28.7828V28.7841V28.7854V28.7867V28.788V28.7893V28.7905V28.7918V28.7931V28.7944V28.7957V28.797V28.7983V28.7995V28.8008V28.8021V28.8034V28.8047V28.806V28.8073V28.8085V28.8098V28.8111V28.8124V28.8137V28.815V28.8163V28.8176V28.8189V28.8202V28.8214V28.8227V28.824V28.8253V28.8266V28.8279V28.8292V28.8305V28.8318V28.8331V28.8344V28.8356V28.8369V28.8382V28.8395V28.8408V28.8421V28.8434V28.8447V28.846V28.8473V28.8486V28.8499V28.8512V28.8524V28.8537V28.855V28.8563V28.8576V28.8589V28.8602V28.8615V28.8628V28.8641V28.8654V28.8667V28.868V28.8693V28.8706V28.8719V28.8732V28.8745V28.8758V28.8771V28.8783V28.8796V28.8809V28.8822V28.8835V28.8848V28.8861V28.8874V28.8887V28.89V28.8913V28.8926V28.8939V28.8952C38.2814 29.3488 38.2781 29.8032 38.2749 30.2581C38.2667 31.3859 38.2586 32.5166 38.3003 33.6448M16.8281 28.4651V28.4662V28.4673V28.4685V28.4696V28.4707V28.4719V28.473V28.4742V28.4753V28.4764V28.4776V28.4787V28.4799V28.481V28.4822V28.4833V28.4845V28.4856V28.4868V28.4879V28.4891V28.4902V28.4914V28.4925V28.4937V28.4948V28.496V28.4971V28.4983V28.4995V28.5006V28.5018V28.5029V28.5041V28.5053V28.5064V28.5076V28.5088V28.5099V28.5111V28.5123V28.5134V28.5146V28.5158V28.5169V28.5181V28.5193V28.5205V28.5216V28.5228V28.524V28.5252V28.5263V28.5275V28.5287V28.5299V28.5311V28.5322V28.5334V28.5346V28.5358V28.537V28.5382V28.5393V28.5405V28.5417V28.5429V28.5441V28.5453V28.5465V28.5477V28.5489V28.55V28.5512V28.5524V28.5536V28.5548V28.556V28.5572V28.5584V28.5596V28.5608V28.562V28.5632V28.5644V28.5656V28.5668V28.568V28.5692V28.5704V28.5716V28.5728V28.574V28.5752V28.5764V28.5777V28.5789V28.5801V28.5813V28.5825V28.5837V28.5849V28.5861V28.5873V28.5886V28.5898V28.591V28.5922V28.5934V28.5946V28.5958V28.5971V28.5983V28.5995V28.6007V28.6019V28.6032V28.6044V28.6056V28.6068V28.6081V28.6093V28.6105V28.6117V28.613V28.6142V28.6154V28.6166V28.6179V28.6191V28.6203V28.6216V28.6228V28.624V28.6252V28.6265V28.6277V28.6289V28.6302V28.6314V28.6326V28.6339V28.6351V28.6364V28.6376V28.6388V28.6401V28.6413V28.6425V28.6438V28.645V28.6463V28.6475V28.6488V28.65V28.6512V28.6525V28.6537V28.655V28.6562V28.6575V28.6587V28.66V28.6612V28.6624V28.6637V28.6649V28.6662V28.6674V28.6687V28.6699V28.6712V28.6724V28.6737V28.6749V28.6762V28.6775V28.6787V28.68V28.6812V28.6825V28.6837V28.685V28.6862V28.6875V28.6888V28.69V28.6913V28.6925V28.6938V28.695V28.6963V28.6976V28.6988V28.7001V28.7013V28.7026V28.7039V28.7051V28.7064V28.7077V28.7089V28.7102V28.7115V28.7127V28.714V28.7153V28.7165V28.7178V28.7191V28.7203V28.7216V28.7229V28.7241V28.7254V28.7267V28.7279V28.7292V28.7305V28.7317V28.733V28.7343V28.7356V28.7368V28.7381V28.7394V28.7406V28.7419V28.7432V28.7445V28.7457V28.747V28.7483V28.7496V28.7508V28.7521V28.7534V28.7547V28.756V28.7572V28.7585V28.7598V28.7611V28.7623V28.7636V28.7649V28.7662V28.7675V28.7687V28.77V28.7713V28.7726V28.7739V28.7751V28.7764V28.7777V28.779V28.7803V28.7816V28.7828V28.7841V28.7854V28.7867V28.788V28.7893V28.7905V28.7918V28.7931V28.7944V28.7957V28.797V28.7983V28.7995V28.8008V28.8021V28.8034V28.8047V28.806V28.8073V28.8086V28.8098V28.8111V28.8124V28.8137V28.815V28.8163V28.8176V28.8189V28.8202V28.8214V28.8227V28.824V28.8253V28.8266V28.8279V28.8292V28.8305V28.8318V28.8331V28.8344V28.8356V28.8369V28.8382V28.8395V28.8408V28.8421V28.8434V28.8447V28.846V28.8473V28.8486V28.8499V28.8512V28.8524V28.8537V28.855V28.8563V28.8576V28.8589V28.8602V28.8615V28.8628V28.8641V28.8654V28.8667V28.868V28.8693V28.8706V28.8719V28.8732V28.8745V28.8758V28.8771V28.8783V28.8796V28.8809V28.8822V28.8835V28.8848V28.8861V28.8874V28.8887V28.89V28.8913V28.8926V28.8939V28.8952V28.9034V28.9115V28.9197V28.9279V28.9361V28.9442V28.9524V28.9606V28.9687V28.9769V28.9851V28.9932V29.0014V29.0096V29.0178V29.0259V29.0341V29.0423V29.0504V29.0586V29.0668V29.075V29.0831V29.0913V29.0995V29.1076V29.1158V29.124V29.1322V29.1403V29.1485V29.1567V29.1648V29.173V29.1812V29.1894V29.1975V29.2057V29.2139V29.222V29.2302V29.2384V29.2465V29.2547V29.2629V29.2711V29.2792V29.2874V29.2956V29.3037V29.3119V29.3201V29.3283V29.3364V29.3446V29.3528V29.3609V29.3691V29.3773V29.3855V29.3936V29.4018V29.41V29.4181V29.4263V29.4345V29.4426V29.4508V29.459V29.4672V29.4753V29.4835V29.4917V29.4998V29.508V29.5162V29.5244V29.5325V29.5407V29.5489V29.557V29.5652V29.5734V29.5816V29.5897V29.5979V29.6061V29.6142V29.6224V29.6306V29.6388V29.6469V29.6551V29.6633V29.6714V29.6796V29.6878V29.6959V29.7041V29.7123V29.7205V29.7286V29.7368V29.745V29.7531V29.7613V29.7695V29.7777V29.7858V29.794V29.8022V29.8103V29.8185V29.8267V29.8349V29.843V29.8512V29.8594V29.8675V29.8757V29.8839V29.8921V29.9002V29.9084V29.9166V29.9247V29.9329V29.9411V29.9492V29.9574V29.9656V29.9738V29.9819V29.9901V29.9983V30.0064V30.0146V30.0228V30.031V30.0391V30.0473V30.0555V30.0636V30.0718V30.08V30.0882V30.0963V30.1045V30.1127V30.1208V30.129V30.1372V30.1454V30.1535V30.1617V30.1699V30.178V30.1862V30.1944V30.2025V30.2107V30.2189V30.2271V30.2352V30.2434V30.2516V30.2597V30.2679V30.2761V30.2843V30.2924V30.3006V30.3088V30.3169V30.3251V30.3333V30.3415V30.3496V30.3578V30.366V30.3741V30.3823V30.3905V30.3986V30.4068V30.415V30.4232V30.4313V30.4395V30.4477V30.4558V30.464V30.4722V30.4804V30.4885V30.4967V30.5049V30.513V30.5212V30.5294V30.5376V30.5457V30.5539V30.5621V30.5702V30.5784V30.5866V30.5948V30.6029V30.6111V30.6193V30.6274V30.6356V30.6438V30.6519V30.6601V30.6683V30.6765V30.6846V30.6928V30.701V30.7091V30.7173V30.7255V30.7337V30.7418V30.75V30.7582V30.7663V30.7745V30.7827V30.7909V30.799V30.8072V30.8154V30.8235V30.8317V30.8399V30.8481V30.8562V30.8644V30.8726V30.8807V30.8889V30.8971V30.9052V30.9134V30.9216V30.9298V30.9379V30.9461V30.9543V30.9624V30.9706V30.9788V30.987V30.9951V31.0033V31.0115V31.0196V31.0278V31.036V31.0442V31.0523V31.0605V31.0687V31.0768V31.085V31.0932V31.1014V31.1095V31.1177V31.1259V31.134V31.1422V31.1504V31.1585V31.1667V31.1749V31.1831V31.1912V31.1994V31.2076V31.2157V31.2239V31.2321V31.2403V31.2484V31.2566V31.2648V31.2729V31.2811V31.2893V31.2975V31.3056V31.3138V31.322V31.3301V31.3383V31.3465V31.3546V31.3628V31.371V31.3792V31.3873V31.3955V31.4037V31.4118V31.42V31.4282V31.4364V31.4445V31.4527V31.4609V31.469V31.4772V31.4854V31.4936V31.5017V31.5099V31.5181V31.5262V31.5344V31.5426V31.5508V31.5589V31.5671V31.5753V31.5834V31.5916V31.5998V31.6079V31.6161V31.6243V31.6325V31.6406V31.6488V31.657V31.6651V31.6733V31.6815V31.6897V31.6978V31.706V31.7142V31.7223V31.7305V31.7387V31.7469V31.755V31.7632V31.7714V31.7795V31.7877V31.7959V31.8041V31.8122V31.8204V31.8286V31.8367V31.8449V31.8531V31.8612V31.8694V31.8776V31.8858V31.8939V31.9021V31.9103V31.9184V31.9266V31.9348V31.943V31.9511V31.9593V31.9675V31.9756V31.9838V31.992V32.0002V32.0083V32.0165V32.0247V32.0328V32.041V32.0492V32.0573V32.0655V32.0737V32.0819V32.09V32.0982V32.1064V32.1145V32.1227V32.1309V32.1391V32.1472V32.1554V32.1636V32.1717V32.1799V32.1881V32.1963V32.2044V32.2126V32.2208V32.2289V32.2371V32.2453V32.2535V32.2616V32.2698V32.278V32.2861V32.2943V32.3025V32.3106V32.3188V32.327V32.3352V32.3433V32.3515V32.3597V32.3678V32.376V32.3842V32.3924V32.4005V32.4087V32.4169V32.425V32.4332V32.4414V32.4496V32.4577V32.4659V32.4741V32.4822V32.4904V32.4986V32.5068V32.5149V32.5231V32.5313V32.5394V32.5476V32.5558V32.5639V32.5721V32.5803V32.5885V32.5966V32.6048V32.613V32.6211V32.6293V32.6375V32.6457V32.6538V32.662V32.6702V32.6783V32.6865V32.6947V32.7029V32.711V32.7192V32.7274V32.7355V32.7437V32.7519V32.7601V32.7682V32.7764V32.7846V32.7927V32.8009V32.8091V32.8172V32.8254V32.8336V32.8418V32.8499V32.8581V32.8663V32.8744V32.8826V32.8908V32.899V32.9071V32.9153V32.9235V32.9316V32.9398V32.948V32.9562V32.9643V32.9725V32.9807V32.9888V32.997V33.0052V33.0133V33.0215V33.0297V33.0379V33.046V33.0542V33.0624V33.0705V33.0787C16.8281 33.4905 16.8332 33.7983 16.8633 34.041C16.8932 34.2821 16.9467 34.4485 17.0367 34.5818C17.1266 34.7152 17.2607 34.8271 17.4729 34.9452C17.6866 35.0641 17.9699 35.1842 18.3515 35.3385L18.3524 35.3389C18.4468 35.3779 18.541 35.4148 18.637 35.4496L18.6372 35.4497C20.9481 36.2906 23.3703 36.5321 25.8138 36.6594L25.8139 36.6594C28.4256 36.7968 31.04 36.6966 33.6022 36.1774C34.7372 35.9472 35.8429 35.559 36.9528 35.1692C37.1315 35.1065 37.3104 35.0437 37.4894 34.9815M38.3003 33.6448C38.3132 34.0016 38.2518 34.2843 38.1211 34.501C37.9915 34.7159 37.7867 34.8778 37.4894 34.9815" fill="white" stroke="#2D2DC1" stroke-width="0.25"/>
<path d="M21.6996 24.0147C24.6328 23.5074 27.5842 23.4559 30.5493 23.6686C29.9188 23.9474 29.2984 24.2218 28.6852 24.493C27.1729 25.1619 25.7047 25.8112 24.2364 26.4597L24.2364 26.4597C23.9941 26.5668 23.7541 26.676 23.5149 26.7848C22.923 27.054 22.336 27.321 21.7302 27.5488L21.7302 27.5488C21.3771 27.6817 20.9503 27.7617 20.6378 27.6692L20.6378 27.6692C19.5313 27.3416 18.4278 26.989 17.3965 26.5007L17.3963 26.5006C17.1889 26.4029 17.0449 26.3079 16.9545 26.2177C16.8653 26.1287 16.8355 26.0522 16.8359 25.9858C16.8363 25.9172 16.8691 25.8326 16.9603 25.729C17.0514 25.6257 17.1925 25.5133 17.388 25.3923C18.6998 24.5818 20.1832 24.2778 21.6996 24.0147Z" fill="white" stroke="#2D2DC1" stroke-width="0.25"/>
<path d="M34.0799 27.8806C35.3582 27.5946 36.6114 27.1103 37.8125 26.5738C38.607 26.2189 38.5987 25.7409 37.8313 25.3359C37.0883 24.9416 36.284 24.6576 35.4871 24.3762C35.4274 24.3551 35.3677 24.334 35.3081 24.3129L34.0799 27.8806ZM34.0799 27.8806C31.0355 28.5654 27.9284 28.5278 24.8256 28.4151L34.0799 27.8806ZM33.3327 24.4123L33.3328 24.4122C33.9974 24.0495 34.6076 24.1985 35.2664 24.4308C35.3255 24.4517 35.3846 24.4726 35.4436 24.4934C36.2424 24.7755 37.0383 25.0566 37.7727 25.4463L37.773 25.4464C37.9571 25.5436 38.0878 25.6412 38.1708 25.7337C38.2534 25.8258 38.283 25.9059 38.2826 25.9729C38.2822 26.039 38.2524 26.1153 38.1692 26.2002C38.0851 26.286 37.952 26.3746 37.7615 26.4597C36.5638 26.9947 35.3192 27.4753 34.0526 27.7586L34.0525 27.7587C31.0254 28.4395 27.9328 28.4029 24.8301 28.2901L24.83 28.2901C24.7837 28.2885 24.7348 28.279 24.6788 28.2651C24.6768 28.2646 24.6748 28.264 24.6727 28.2635C25.6629 27.8254 26.6526 27.3872 27.6423 26.9491L27.6423 26.949C28.6844 26.4877 29.7265 26.0263 30.769 25.565C31.0235 25.4526 31.2824 25.3439 31.5426 25.2348C32.1467 24.9814 32.7573 24.7253 33.3327 24.4123Z" fill="white" stroke="#2D2DC1" stroke-width="0.25"/>
<path d="M19.2513 3.06609L19.2516 3.06601C19.4302 3.02245 19.5843 3.04554 19.7044 3.11585C19.8246 3.1862 19.9226 3.31091 19.9757 3.4928C20.0317 3.68748 20.0213 3.86263 19.958 3.99843C19.8958 4.13183 19.777 4.2397 19.5896 4.2942L19.5894 4.29424C18.2232 4.69325 17.1787 5.4868 16.4162 6.68522L16.4162 6.68522L16.4154 6.68646C16.3771 6.74814 16.3053 6.80056 16.217 6.84711C16.1742 6.86966 16.1316 6.88883 16.0914 6.90686C16.0893 6.90777 16.0873 6.90868 16.0852 6.90961C16.0631 6.91953 16.0391 6.93024 16.0172 6.9412C15.716 6.92417 15.4938 6.79904 15.3718 6.63977C15.247 6.47692 15.2205 6.27235 15.3227 6.0778C16.1662 4.47682 17.4993 3.4882 19.2513 3.06609Z" fill="#2D2DC1" stroke="#2D2DC1" stroke-width="0.25"/>
<path d="M21.683 4.21402L21.683 4.21402C21.472 4.21025 21.3235 4.15104 21.2236 4.05624C21.1232 3.96106 21.0568 3.81589 21.0379 3.61145L21.0379 3.61145L21.0378 3.61072C21.0049 3.27618 21.2953 2.95196 21.7384 2.94017C21.9153 2.95296 22.0546 3.01443 22.1537 3.11551C22.2541 3.21784 22.3241 3.37188 22.3401 3.58823C22.3652 3.93738 22.0785 4.22125 21.683 4.21402Z" fill="#2D2DC1" stroke="#2D2DC1" stroke-width="0.25"/>
</svg>
