<svg width="48" height="51" viewBox="0 0 48 51" fill="none" xmlns="http://www.w3.org/2000/svg">
<g clip-path="url(#clip0_287_2540)">
<path d="M21.6112 13.6763C22.1605 11.8281 22.7115 9.9815 23.2576 8.13163C23.714 6.58375 24.1459 5.02926 24.6138 3.48468C25.1875 1.5919 26.9985 0.522576 28.8926 1.07374C33.7534 2.48796 38.5963 3.96819 43.4473 5.42201C44.1466 5.63158 44.8524 5.82466 45.5452 6.05899C47.3986 6.68606 48.4027 8.56233 47.8485 10.4601C45.4197 18.7853 42.9746 27.1072 40.5328 35.4275C39.4081 39.2593 38.2605 43.0844 37.1505 46.9212C36.399 49.5219 34.619 50.4971 32.0484 49.6968C29.724 48.974 27.3881 48.2842 25.0213 47.5697C24.9235 47.7281 24.8289 47.8568 24.7588 47.9971C24.0547 49.4295 22.8778 50.0681 21.3357 50.0697C15.523 50.0747 9.71024 50.073 3.89749 50.0714C1.45731 50.0697 0.00820191 48.6093 0.00494181 46.1175C-0.00157838 39.8732 -0.00320843 33.6305 0.00983195 27.3894C0.013092 26.0181 0.081554 24.6468 0.138606 23.2755C0.148386 23.0346 0.182617 22.7524 0.313021 22.5659C1.51437 20.848 2.72712 19.1368 3.97248 17.4519C4.15015 17.211 4.55277 17.1533 4.79565 16.9453C4.98637 16.782 5.19827 16.5179 5.20153 16.2968C5.20479 16.0674 5.02223 15.7176 4.82499 15.6235C4.01323 15.2341 3.65299 14.6219 3.66766 13.7258C3.68722 12.5707 3.65788 11.4155 3.67744 10.262C3.697 9.02109 4.38651 8.32306 5.60089 8.31976C10.2188 8.3115 14.8351 8.31315 19.453 8.3181C20.7424 8.31976 21.4466 9.03594 21.4678 10.366C21.4857 11.4601 21.471 12.5558 21.471 13.6515C21.5183 13.6598 21.5656 13.668 21.6112 13.6763ZM25.1158 45.9277C27.7043 46.705 30.2945 47.4839 32.8846 48.2578C34.1968 48.6489 35.1162 48.1604 35.5106 46.8304C36.813 42.4508 38.1057 38.0695 39.3967 33.6866C41.6934 25.891 43.9869 18.0955 46.2755 10.2967C46.6895 8.88742 46.1565 7.91216 44.7937 7.50291C39.5026 5.91542 34.2115 4.32463 28.9187 2.73879C27.318 2.25858 26.4851 2.74374 25.9993 4.39724C24.7914 8.51943 23.6097 12.6515 22.3431 16.7539C22.0073 17.8397 21.96 18.7143 22.824 19.5592C23.2869 20.0114 23.6031 20.6137 24.0074 21.1302C24.7621 22.0956 25.1142 23.188 25.0946 24.4158C25.0914 24.6501 25.0995 24.9306 25.2185 25.1138C25.82 26.0429 26.5323 26.9059 27.0702 27.8696C28.27 30.0165 27.5055 31.7245 25.1175 32.3516C25.1158 36.85 25.1158 41.355 25.1158 45.9277ZM23.445 26.8498C16.1506 26.8498 8.89848 26.8498 1.65781 26.8498C1.65781 32.5067 1.65781 38.0992 1.65781 43.7115C8.94412 43.7115 16.1766 43.7115 23.445 43.7115C23.445 38.0645 23.445 32.472 23.445 26.8498ZM1.65292 25.1056C8.94738 25.1056 16.1815 25.1056 23.4157 25.1056C23.6178 23.9125 23.3782 22.8943 22.6544 21.9768C21.9437 21.0758 21.264 20.15 20.5973 19.216C20.18 18.6318 19.6649 18.3777 18.9412 18.381C14.6786 18.4025 10.4161 18.4025 6.15511 18.381C5.43137 18.3777 4.91301 18.6252 4.49735 19.2111C3.83066 20.1467 3.15419 21.0758 2.44512 21.9768C1.72301 22.8926 1.46546 23.9059 1.65292 25.1056ZM1.64477 45.3601C1.62847 45.6125 1.62195 45.8023 1.60239 45.9904C1.43938 47.4707 2.33917 48.4773 3.98063 48.4591C9.7624 48.3915 15.5474 48.4459 21.3309 48.4096C21.8541 48.4063 22.4654 48.2034 22.8794 47.8865C23.7107 47.2512 23.5037 46.2941 23.432 45.3601C16.1587 45.3601 8.94575 45.3601 1.64477 45.3601ZM5.28303 9.9815C5.28303 11.3924 5.28303 12.7159 5.28303 14.0426C10.1683 14.0426 14.9834 14.0426 19.81 14.0426C19.81 12.6614 19.81 11.3347 19.81 9.9815C14.9508 9.9815 10.1536 9.9815 5.28303 9.9815ZM6.85766 16.7077C10.6785 16.7077 14.4374 16.7077 18.2175 16.7077C18.2175 16.3744 18.2175 16.0905 18.2175 15.7836C14.4064 15.7836 10.6491 15.7836 6.85766 15.7836C6.85766 16.0971 6.85766 16.3645 6.85766 16.7077ZM25.1386 27.8053C25.1386 28.7904 25.1386 29.6981 25.1386 30.6156C26.3954 30.3565 26.2471 29.1205 25.1386 27.8053ZM21.2102 15.0625C20.7163 15.343 20.3202 15.5691 19.916 15.7984C19.8116 16.8414 19.8116 16.8414 20.6479 16.9701C20.8223 16.3793 20.9983 15.7819 21.2102 15.0625Z" fill="#2D2DC1"/>
<path d="M39.5376 9.41211C40.4146 9.43521 41.2149 9.88242 41.7268 10.7851C42.1848 11.592 42.6266 12.4089 43.0227 13.2472C43.6584 14.5921 43.1417 16.1631 41.8816 16.8462C40.576 17.5542 39.0013 17.0971 38.2368 15.7588C37.7902 14.9782 37.3631 14.1828 36.9817 13.3676C36.0966 11.4864 37.368 9.41376 39.5376 9.41211ZM39.6599 11.0986C38.6118 11.0986 38.0559 11.8825 38.3868 12.63C38.7177 13.3775 39.1138 14.0987 39.5197 14.8083C39.8441 15.3776 40.3494 15.5871 40.9672 15.3083C41.5654 15.0376 41.7952 14.3627 41.4855 13.7158C41.1546 13.0277 40.8058 12.3412 40.3869 11.7059C40.188 11.4006 39.8082 11.2174 39.6599 11.0986Z" fill="#2D2DC1"/>
<path d="M37.8241 32.3285C37.8078 33.9028 37.0743 34.8978 35.9235 35.2559C34.7335 35.6256 33.5192 35.2229 32.8688 34.1602C32.3716 33.3466 31.9201 32.4984 31.524 31.6288C31.0056 30.4918 31.3365 29.2195 32.2738 28.434C33.2176 27.6419 34.5624 27.495 35.498 28.3003C36.8102 29.4291 37.4411 31.0034 37.8241 32.3285ZM34.2005 29.4159C33.1019 29.4258 32.5949 30.2261 32.9666 31.0446C33.2926 31.7624 33.6854 32.4522 34.0815 33.1354C34.432 33.7394 34.9748 33.9572 35.6007 33.6272C36.2348 33.2938 36.3506 32.7113 36.0506 32.0842C35.7116 31.3713 35.3611 30.6568 34.9324 29.9984C34.7352 29.6947 34.3423 29.5231 34.2005 29.4159Z" fill="#2D2DC1"/>
<path d="M30.3049 20.0691C30.3082 21.5807 29.5208 22.6467 28.3586 23.018C27.2437 23.3728 26.0325 22.9702 25.387 21.9272C24.8573 21.0724 24.3797 20.1764 23.9705 19.2572C23.4929 18.1846 23.8744 16.8908 24.7856 16.1515C25.6805 15.4255 27.0774 15.2835 27.9576 16.0113C29.3008 17.1252 29.8436 18.744 30.3049 20.0691ZM26.7547 17.1532C25.6511 17.1153 25.1328 18.0278 25.5533 18.9123C25.8695 19.5774 26.2184 20.2275 26.5819 20.8662C26.9519 21.5163 27.6039 21.7276 28.163 21.3876C28.7873 21.0064 28.8493 20.4239 28.5722 19.8166C28.2559 19.1236 27.9087 18.4354 27.498 17.7984C27.2942 17.4849 26.916 17.2885 26.7547 17.1532Z" fill="#2D2DC1"/>
<path d="M28.6348 39.6834C28.6511 38.4523 29.3846 37.4292 30.5077 37.0843C31.6112 36.746 32.9039 37.1619 33.5184 38.1405C34.0253 38.9458 34.485 39.789 34.8876 40.6537C35.5136 41.9986 34.9659 43.5647 33.701 44.2346C32.4279 44.9096 30.8239 44.4888 30.11 43.1769C29.5068 42.0696 28.6608 41.0448 28.6348 39.6834ZM33.7873 41.8749C33.0832 40.7313 32.4915 39.6702 31.7775 38.7048C31.6471 38.5283 30.9038 38.5976 30.6348 38.8071C30.3659 39.0184 30.1295 39.6273 30.242 39.9161C30.5941 40.8237 31.0586 41.7032 31.6063 42.5052C31.7873 42.7709 32.3969 42.9376 32.7278 42.8435C33.0929 42.7412 33.3619 42.2891 33.7873 41.8749Z" fill="#2D2DC1"/>
<path d="M26.5254 9.47818C26.527 7.88244 27.2279 6.90552 28.3885 6.50288C29.4578 6.13323 30.7081 6.47317 31.3406 7.45174C31.929 8.36265 32.4425 9.33791 32.8712 10.3379C33.3259 11.4023 32.9168 12.6202 32.0056 13.3495C31.0846 14.0855 29.7301 14.2175 28.8368 13.4799C27.4871 12.3644 26.9851 10.7307 26.5254 9.47818ZM31.7041 11.3314C31.0162 10.1878 30.4571 9.13659 29.7545 8.19433C29.6062 7.9963 28.814 8.04251 28.5336 8.26199C28.2598 8.47651 28.0576 9.12999 28.1783 9.45508C28.5108 10.3429 28.9639 11.2059 29.5084 11.9782C29.7072 12.2604 30.3413 12.4254 30.7032 12.3347C31.0504 12.2472 31.2998 11.7621 31.7041 11.3314Z" fill="#2D2DC1"/>
<path d="M40.4487 23.1121C40.4634 24.6682 39.7103 25.7276 38.5563 26.0923C37.4478 26.4422 36.1438 25.9702 35.5195 24.9141C35.0354 24.0939 34.5952 23.2408 34.2138 22.3678C33.7232 21.2506 34.1079 19.9173 35.0517 19.1912C36.0753 18.4024 37.4169 18.3314 38.3411 19.1961C39.5408 20.3183 40.0852 21.8398 40.4487 23.1121ZM39.1724 23.4339C38.5155 22.3497 37.9678 21.3216 37.2783 20.4057C37.13 20.2077 36.3459 20.2556 36.0672 20.4718C35.7901 20.6863 35.5782 21.3332 35.6955 21.6549C36.0118 22.5196 36.4453 23.3678 36.9914 24.1038C37.2066 24.3943 37.8716 24.518 38.2726 24.4339C38.5872 24.3662 38.8105 23.8596 39.1724 23.4339Z" fill="#2D2DC1"/>
<path d="M15.4832 32.2427C16.6259 32.2427 17.6544 32.2377 18.6814 32.2443C19.5909 32.2493 19.855 32.5034 19.8615 33.3961C19.8697 34.6602 19.855 35.9259 19.8664 37.1899C19.8729 37.9094 19.5632 38.2543 18.8378 38.2444C17.7571 38.2279 16.6764 38.2395 15.4816 38.2395C15.4816 39.3864 15.4881 40.4458 15.4799 41.5069C15.4718 42.4788 15.299 42.6488 14.3242 42.6521C13.1017 42.657 11.8792 42.6372 10.6583 42.6587C9.89377 42.6719 9.57591 42.3221 9.59058 41.5597C9.61177 40.4903 9.59547 39.421 9.59547 38.2395C8.48867 38.2395 7.43892 38.2461 6.38754 38.2378C5.46004 38.2296 5.24162 38.0117 5.23184 37.0662C5.22043 35.8566 5.2188 34.647 5.23184 33.4374C5.24162 32.4803 5.49264 32.2476 6.46089 32.2427C7.46337 32.2394 8.46585 32.241 9.59384 32.241C9.59384 31.17 9.59221 30.137 9.59384 29.1056C9.5971 28.0627 9.81553 27.83 10.8164 27.8234C12.0112 27.8152 13.206 27.8284 14.4009 27.8201C15.1344 27.8152 15.5044 28.1304 15.4848 28.9126C15.462 29.9835 15.4832 31.0512 15.4832 32.2427ZM6.8521 36.6668C7.92467 36.6668 8.92389 36.6635 9.92311 36.6685C10.9452 36.6734 11.1717 36.8913 11.1831 37.9111C11.1929 38.9193 11.1848 39.9293 11.1848 40.9639C12.153 40.9639 13.0284 40.9639 13.9705 40.9639C13.9705 39.8897 13.9656 38.8781 13.9721 37.8649C13.9787 36.8005 14.1026 36.6734 15.1474 36.6685C16.1695 36.6635 17.1915 36.6668 18.2168 36.6668C18.2168 35.6767 18.2168 34.8137 18.2168 33.8829C17.1882 33.8829 16.2151 33.8862 15.2436 33.8829C14.1352 33.878 13.977 33.7179 13.9738 32.5892C13.9705 31.5578 13.9721 30.5264 13.9721 29.5083C12.9746 29.5083 12.1172 29.5083 11.1864 29.5083C11.1864 30.5462 11.1913 31.5298 11.1848 32.5149C11.1782 33.6371 10.9435 33.878 9.85954 33.8813C8.86684 33.8846 7.87251 33.8813 6.85373 33.8813C6.8521 34.8417 6.8521 35.6883 6.8521 36.6668Z" fill="#2D2DC1"/>
<path d="M12.1495 13.272C11.4192 13.272 10.689 13.2686 9.95707 13.2736C9.45339 13.2769 9.12249 13.0805 9.08826 12.5277C9.05402 11.965 9.40286 11.6894 9.87231 11.6779C11.3866 11.6432 12.9026 11.6416 14.4169 11.6828C14.8912 11.696 15.2987 12.036 15.1325 12.5508C15.0363 12.8462 14.6386 13.1977 14.337 13.2389C13.6198 13.3396 12.8797 13.2703 12.1495 13.272Z" fill="#2D2DC1"/>
<path d="M17.5027 13.2653C16.9306 13.3428 16.4269 13.1993 16.321 12.5128C16.2395 11.9831 16.7545 11.6431 17.5435 11.6514C18.1222 11.6563 18.6959 11.7603 18.6927 12.4864C18.6878 13.2207 18.1222 13.3115 17.5027 13.2653Z" fill="#2D2DC1"/>
</g>
<defs>
<clipPath id="clip0_287_2540">
<rect width="48" height="49.1429" fill="white" transform="translate(0 0.928467)"/>
</clipPath>
</defs>
</svg>
