<svg width="53" height="51" viewBox="0 0 53 51" fill="none" xmlns="http://www.w3.org/2000/svg">
<path d="M52.495 29.5972C52.4036 29.7448 52.2455 29.8865 52.2303 30.0422C52.0195 32.1898 50.8333 33.6571 48.9421 34.5189C46.1212 35.8035 42.6527 34.7894 41.2288 31.8011C39.8154 28.8326 40.9337 25.3125 43.9818 23.8933C44.4139 23.6919 44.901 23.6087 45.3425 23.4237C45.5064 23.3546 45.7184 23.1567 45.7289 23.0045C45.8659 21.0571 45.5954 19.2105 44.312 17.6296C43.2511 16.324 41.881 15.537 40.217 15.482C38.4348 15.4223 36.9628 16.2139 35.8176 17.584C34.7613 18.8486 34.3234 20.3405 34.3187 21.9576C34.3023 27.6721 34.4077 33.3889 34.2683 39.0999C34.177 42.8272 32.4744 45.8507 29.3876 48.0264C27.7037 49.2127 25.7891 49.797 23.7633 49.7818C20.6824 49.7583 18.0758 48.5464 16.0171 46.2266C14.8719 44.935 14.0651 43.4408 13.599 41.7897C13.3519 40.9138 13.2606 39.9899 13.1599 39.08C13.0955 38.4933 13.1447 37.8949 13.1353 37.3012C13.1318 37.0612 13.1096 36.8305 12.7899 36.7825C11.072 36.5237 10.7078 35.3269 10.5556 33.8925C10.4783 33.1664 10.531 32.4264 10.5345 31.6922C10.5357 31.3924 10.4373 31.2261 10.1294 31.1055C9.14572 30.7214 8.13866 30.3666 7.21708 29.8631C4.87391 28.5832 3.13615 26.7084 2.06117 24.2493C1.57872 23.1474 1.24849 22.0103 1.23796 20.7843C1.2321 20.0782 1.09744 19.3732 1.00844 18.6683C0.956916 18.262 1.1431 18.1413 1.51782 18.1706C1.7813 18.1917 2.04829 18.1683 2.3141 18.1741C2.69117 18.1835 2.85745 17.9985 2.84574 17.6296C2.83988 17.4587 2.84574 17.2865 2.84691 17.1144C2.85159 13.5545 2.82817 9.9947 2.87267 6.43486C2.89258 4.82357 4.25562 3.28019 5.79432 2.88556C6.05896 2.81764 6.36693 2.5975 6.49106 2.36095C7.15502 1.10564 8.43726 0.723896 9.67618 1.19464C10.8952 1.65835 11.4163 2.88907 11.0334 4.1479C10.7242 5.16316 10.0626 5.7873 9.00403 5.86576C7.99462 5.9407 7.12106 5.59525 6.59411 4.67368C6.39621 4.32823 6.18894 4.29076 5.87746 4.44885C4.9067 4.93949 4.33057 5.7147 4.32471 6.81309C4.30597 10.4198 4.32003 14.0265 4.31066 17.6331C4.30949 18.0336 4.44532 18.2011 4.85634 18.1823C5.35519 18.1589 5.85638 18.194 6.35522 18.1718C6.7276 18.1554 6.89271 18.269 6.88335 18.6706C6.87046 19.1999 6.91028 19.7304 6.93721 20.2597C7.02972 22.1239 7.85879 23.638 9.22066 24.8582C10.9982 26.4496 13.1529 26.9812 15.4445 26.6405C18.2526 26.2236 20.3358 24.6744 21.2937 21.9483C21.6555 20.919 21.6368 19.7491 21.7351 18.6378C21.7656 18.2959 21.8276 18.1765 22.1766 18.1706C23.3909 18.1507 23.3909 18.1402 23.3898 16.9024C23.3874 13.6084 23.3933 10.3132 23.3792 7.01919C23.3745 5.87864 22.8511 5.03083 21.8347 4.48632C21.5044 4.3095 21.2866 4.354 21.1087 4.68773C20.3206 6.16202 18.084 6.26155 17.0347 4.86689C16.4855 4.13619 16.4083 3.09049 16.8626 2.31528C17.4165 1.36912 18.3392 0.912427 19.3229 1.06817C20.2023 1.20752 20.8393 1.64196 21.248 2.45112C21.3499 2.65253 21.6286 2.81881 21.8593 2.89025C23.2984 3.33288 24.2493 4.26149 24.6544 5.70416C24.7903 6.18895 24.8359 6.71239 24.8395 7.21943C24.8582 10.6071 24.8547 13.996 24.8594 17.3837C24.8605 18.1332 24.9062 18.1706 25.6592 18.1776C26.7821 18.1894 26.6299 18.0535 26.6276 19.1496C26.6217 21.9014 25.9507 24.4507 24.2329 26.6545C22.7504 28.5574 20.878 29.9333 18.5969 30.7413C18.2737 30.8561 17.961 31.0106 17.6308 31.0891C17.2362 31.1828 17.1636 31.4298 17.1694 31.7788C17.1811 32.4346 17.2233 33.0962 17.1518 33.7437C17.0851 34.3538 16.9551 34.9768 16.7291 35.5459C16.4364 36.2836 15.7829 36.6478 15.0159 36.7638C14.674 36.8153 14.5721 36.9886 14.5663 37.2942C14.5405 38.6737 14.6834 40.0308 15.0499 41.3634C15.4141 42.6902 16.0581 43.8729 16.9258 44.9326C18.1425 46.4198 19.6625 47.4526 21.5197 47.9854C23.3101 48.4983 25.0608 48.3836 26.7798 47.6974C29.0878 46.7758 30.7214 45.1387 31.8057 42.9256C32.5399 41.4278 32.8456 39.8376 32.8468 38.1807C32.8479 32.732 32.8222 27.2822 32.8585 21.8335C32.876 19.1976 33.8562 16.9481 36.0155 15.3614C37.4617 14.2993 39.1046 13.8239 40.9477 14.0967C42.5098 14.3274 43.8272 14.9832 44.9268 16.078C46.2582 17.4024 46.976 19.0336 47.1482 20.8967C47.2079 21.5478 47.2044 22.2059 47.2091 22.8616C47.2114 23.2141 47.3379 23.3687 47.7067 23.4542C50.0007 23.987 51.4832 25.4156 52.1612 27.6592C52.2853 28.0691 52.2397 28.5281 52.3006 28.9602C52.3228 29.1171 52.427 29.2612 52.495 29.411C52.495 29.4719 52.495 29.534 52.495 29.5972ZM13.6377 30.0996C15.6143 30.1734 17.276 29.7869 18.872 29.0492C21.0513 28.041 22.7141 26.4894 23.9132 24.4156C24.6966 23.0619 24.9905 21.5782 25.1135 20.0501C25.1228 19.9283 24.9191 19.6953 24.7868 19.673C24.453 19.6168 24.1017 19.6695 23.761 19.6437C23.371 19.6133 23.186 19.7644 23.1474 20.1566C23.0478 21.166 22.8628 22.1485 22.4377 23.0888C21.1168 26.0198 18.7795 27.5866 15.6928 28.0761C13.996 28.3454 12.3062 28.1452 10.6926 27.5011C8.69605 26.7049 7.21474 25.343 6.2674 23.4144C5.76972 22.4003 5.4395 21.3382 5.45707 20.1906C5.46175 19.9236 5.39032 19.6672 5.0601 19.6613C4.34228 19.6473 3.62445 19.6379 2.9078 19.6742C2.78953 19.68 2.57641 19.933 2.58812 20.0548C2.71224 21.371 2.90897 22.6708 3.51087 23.8804C4.58233 26.0292 6.16552 27.6768 8.28737 28.7857C10.0263 29.6909 11.8671 30.219 13.6377 30.0996ZM50.9094 29.2014C50.7572 26.5819 48.9211 24.7938 46.4819 24.7903C44.0813 24.7879 42.1503 26.5913 42.0976 29.1546C42.0485 31.5505 44.0075 33.5798 46.4585 33.588C48.8379 33.595 50.7595 31.8034 50.9094 29.2014ZM15.7736 32.8877C15.7502 32.8842 15.7267 32.8807 15.7045 32.8772C15.7045 32.5809 15.701 32.2847 15.7057 31.9884C15.7103 31.7027 15.5956 31.5516 15.2923 31.554C14.3286 31.5587 13.3637 31.5446 12.3999 31.5692C12.2664 31.5727 12.0229 31.7636 12.0264 31.8608C12.058 32.7742 12.0838 33.6934 12.2126 34.5962C12.2863 35.115 12.6704 35.3223 13.2032 35.3269C13.6248 35.3305 14.0452 35.3305 14.4667 35.3269C15.0675 35.3223 15.3942 35.0904 15.5253 34.4932C15.6413 33.9651 15.6928 33.4229 15.7736 32.8877ZM8.64219 4.36453C9.16914 4.39849 9.66213 3.96874 9.68438 3.45584C9.70428 2.99212 9.22652 2.49796 8.74172 2.47922C8.25693 2.46049 7.75808 2.90547 7.72764 3.38441C7.69485 3.8774 8.11875 4.33175 8.64219 4.36453ZM19.9786 3.42188C19.9693 2.94528 19.4892 2.48274 19.0009 2.47805C18.5219 2.47337 18.0207 2.95231 18.0184 3.4172C18.016 3.92424 18.4997 4.3821 19.0231 4.36805C19.5442 4.35517 19.988 3.91487 19.9786 3.42188Z" fill="#2D2DC1" stroke="#2D2DC1" stroke-width="0.5"/>
<path d="M48.9356 29.1686C48.9508 30.4977 47.8571 31.5937 46.5116 31.6253C45.1333 31.6581 44.0665 30.4239 44.0548 29.2634C44.0408 27.8723 45.1052 26.7481 46.4636 26.7469C47.8032 26.7469 48.8711 27.7329 48.9356 29.1686ZM45.5478 29.1463C45.5326 29.6862 45.9261 30.1136 46.4542 30.13C46.9765 30.1464 47.4273 29.7271 47.4437 29.2096C47.4601 28.706 47.0081 28.2447 46.4952 28.24C46.0022 28.2365 45.5619 28.6568 45.5478 29.1463Z" fill="#2D2DC1" stroke="#2D2DC1" stroke-width="0.2"/>
</svg>
