<svg width="53" height="37" viewBox="0 0 53 37" fill="none" xmlns="http://www.w3.org/2000/svg">
<g clip-path="url(#clip0_286_2493)">
<path d="M6.60618 14.8947C6.60618 12.2549 6.58433 9.69431 6.62208 7.13174C6.63201 6.48862 6.73334 5.80791 6.97573 5.21624C7.55985 3.78358 8.53338 3.33636 10.7844 3.31855C11.1897 1.55147 12.1374 0.261274 14.0944 0.0396457C16.2203 -0.197813 17.6568 0.73817 18.3879 2.69918C21.3542 2.49734 22.6655 3.57382 23.2079 6.48664C24.3225 6.77753 25.3795 7.05457 26.4563 7.33556C27.4279 7.07831 28.5147 6.79138 29.7048 6.47675C30.6704 3.29678 31.7273 2.4261 34.5109 2.73084C35.244 0.645165 36.7917 -0.251241 38.9673 0.0614127C40.7931 0.324596 41.7528 1.54355 42.0706 3.27304C42.7879 3.34626 43.4992 3.31855 44.1449 3.50852C45.482 3.90428 46.3383 5.27758 46.3522 6.92199C46.3701 9.19565 46.3582 11.4713 46.3582 13.745C46.3582 14.1031 46.3582 14.4613 46.3582 14.9065C48.1085 14.2654 49.7278 14.2298 51.2318 15.332C52.7 16.4085 53.3835 18.1815 52.7835 19.8793C51.7444 22.8179 50.7331 25.7782 49.4695 28.6237C47.9893 31.958 45.7522 34.7106 42.1938 36.07C36.2493 38.3397 30.1538 36.353 26.6928 31.0656C26.6252 30.9627 26.5318 30.8736 26.4146 30.7351C25.0656 33.1077 23.351 35.0707 20.7522 35.9414C14.5375 38.0271 8.28503 36.9427 4.50414 30.561C3.52266 28.9047 2.83324 27.0664 2.10011 25.2756C1.43056 23.6371 0.854383 21.959 0.29013 20.281C-0.224452 18.7514 -0.0933232 17.2811 0.997432 16.0107C2.15574 14.6651 3.64982 14.2278 5.37635 14.5464C5.75782 14.6196 6.12538 14.7581 6.60618 14.8947ZM28.2246 18.0449C28.1809 18.0449 28.1352 18.0449 28.0915 18.0449C28.0915 20.0554 28.0537 22.0679 28.1054 24.0764C28.1352 25.1885 28.165 26.3342 28.4491 27.3968C30.0604 33.4184 37.644 35.9889 42.8594 32.3241C44.729 31.0102 46.0065 29.2055 46.8608 27.1455C47.89 24.6621 48.7463 22.1055 49.702 19.5904C49.994 18.8226 50.1649 18.1102 49.3145 17.5997C48.6132 17.1802 47.9993 17.4572 47.4052 18.4387C46.3462 20.184 45.3131 21.9452 44.2343 23.6806C43.7237 24.5038 42.9289 24.7096 42.1998 24.2941C41.4468 23.8666 41.2282 23.0098 41.711 22.1589C42.2296 21.2427 42.8296 20.3681 43.3323 19.444C43.5429 19.0581 43.6998 18.5871 43.7038 18.1538C43.7336 14.5939 43.7296 11.034 43.7078 7.47408C43.7058 7.06644 43.5786 6.6311 43.3958 6.26304C43.3144 6.10077 42.9448 5.99788 42.7223 6.01964C42.5971 6.03152 42.4481 6.34021 42.4044 6.53612C42.3488 6.78743 42.3865 7.0605 42.3865 7.32369C42.3865 10.4542 42.3806 13.5867 42.3885 16.7172C42.3905 17.5621 41.9693 18.0845 41.2024 18.3398C40.4474 18.5911 39.7818 18.3378 39.3825 17.7105C39.1361 17.3266 39.0447 16.7864 39.0428 16.3154C39.0169 12.1619 39.0288 8.00836 39.0269 3.85481C39.0269 3.30866 39.001 2.68335 38.3017 2.66158C37.6003 2.63982 37.1533 3.10286 37.0659 3.82711C37.0381 4.05467 37.0579 4.28817 37.0579 4.5197C37.0579 8.17854 37.0599 11.8374 37.056 15.4962C37.056 16.2541 37.0718 17.014 37.0182 17.7699C36.9665 18.4981 36.4758 19.0205 35.7943 18.9057C35.3175 18.8246 34.8605 18.3259 34.5148 17.9124C34.3459 17.7085 34.4373 17.2772 34.4354 16.9487C34.4314 13.553 34.4314 10.1593 34.4334 6.76368C34.4334 6.35406 34.4473 5.85342 33.8612 6.00579C33.5572 6.08494 33.2929 6.46686 33.1022 6.76962C32.9969 6.93584 33.0823 7.21881 33.0823 7.45033C33.0823 10.9766 33.0982 14.5048 33.0625 18.0311C33.0585 18.5199 32.9472 19.2223 32.6234 19.444C32.1505 19.7685 31.4154 19.9149 30.8353 19.8318C30.12 19.7289 29.8041 19.0858 29.8041 18.3418C29.8061 15.8366 29.8101 13.3314 29.7942 10.8262C29.7902 10.2979 29.7763 9.70421 29.0054 9.70619C28.2345 9.70817 28.2286 10.284 28.2286 10.8262C28.2206 13.2344 28.2246 15.6387 28.2246 18.0449ZM24.551 18.2725C24.5331 18.2725 24.5152 18.2725 24.4993 18.2725C24.4993 15.8979 24.4993 13.5253 24.4993 11.1507C24.4993 10.8875 24.5649 10.5887 24.4636 10.3691C24.3464 10.1118 24.094 9.76951 23.8735 9.74972C23.6748 9.73191 23.3609 10.0584 23.2437 10.3038C23.1245 10.5511 23.1722 10.8836 23.1702 11.1784C23.1563 13.5847 23.1424 15.9929 23.1424 18.3991C23.1424 19.2164 22.7172 19.818 21.9781 19.8852C21.4019 19.9367 20.6887 19.6933 20.2237 19.3391C19.9277 19.1135 19.88 18.4447 19.878 17.9737C19.8522 14.2812 19.882 10.5887 19.8323 6.89626C19.8264 6.51435 19.4548 5.8554 19.1767 5.81385C18.4436 5.70303 18.5429 6.37781 18.5429 6.85866C18.5389 10.2207 18.5429 13.5847 18.535 16.9467C18.535 17.3049 18.5151 17.6749 18.4217 18.0172C18.2409 18.6762 17.7204 19.0957 17.0945 18.9077C16.6495 18.7731 16.2243 18.2923 15.9819 17.8589C15.7952 17.5225 15.8846 17.0219 15.8846 16.5945C15.8786 12.4409 15.8786 8.28539 15.8846 4.13185C15.8865 3.34823 15.6402 2.6695 14.7799 2.6695C13.9216 2.6695 13.9276 3.43134 13.9196 4.0705C13.9117 4.79673 13.9176 5.52098 13.9176 6.24721C13.9176 9.67651 13.9276 13.1058 13.9117 16.5331C13.9057 17.7006 13.2123 18.4427 12.2149 18.4308C11.2036 18.4189 10.5858 17.6986 10.5858 16.5015C10.5798 13.3037 10.5977 10.1059 10.5599 6.90813C10.556 6.59746 10.25 6.28876 10.0851 5.98007C9.80891 6.2571 9.46718 6.49654 9.28042 6.82502C9.15128 7.05457 9.22678 7.40482 9.22678 7.69966C9.22479 10.2385 9.344 12.7833 9.19101 15.3142C9.04598 17.7165 9.4493 19.8674 10.997 21.7612C11.1977 22.0065 11.3387 22.333 11.4083 22.6437C11.5811 23.4036 11.3427 24.015 10.5977 24.3534C9.89236 24.674 9.30625 24.4444 8.82544 23.8963C8.65458 23.7004 8.5314 23.459 8.39629 23.2334C7.40885 21.5969 6.41346 19.9664 5.44191 18.32C5.0227 17.6096 4.48626 17.2119 3.6518 17.568C2.94847 17.8688 2.79748 18.5693 3.18888 19.5053C3.40345 20.0218 3.64783 20.5264 3.83856 21.0508C4.60547 23.1463 5.22138 25.3112 6.14326 27.3355C7.93933 31.2813 10.8599 34.1802 16.1846 33.8755C20.8198 33.6103 23.9073 31.1645 24.4874 26.5618C24.8311 23.8389 24.551 21.0389 24.551 18.2725Z" fill="#2D2DC1"/>
</g>
<defs>
<clipPath id="clip0_286_2493">
<rect width="53" height="37" fill="white"/>
</clipPath>
</defs>
</svg>
