<svg width="45" height="45" viewBox="0 0 45 45" fill="none" xmlns="http://www.w3.org/2000/svg">
<mask id="mask0_283_2487" style="mask-type:luminance" maskUnits="userSpaceOnUse" x="0" y="0" width="45" height="45">
<path d="M44.2602 0H0.0195312V44.306H44.2602V0Z" fill="white"/>
</mask>
<g mask="url(#mask0_283_2487)">
<path d="M10.1846 27.1265C9.22921 26.1979 8.49272 25.0681 8.02861 23.8192C7.5645 22.5704 7.38443 21.2338 7.50148 19.9066C7.61852 18.5795 8.02975 17.2951 8.70528 16.1467C9.38081 14.9984 10.3037 14.0149 11.4068 13.2679C12.503 12.5621 13.7401 12.1042 15.0316 11.9261C16.3231 11.7481 17.638 11.8542 18.8842 12.2371C20.1305 12.6199 21.2781 13.2702 22.247 14.1427C23.2158 15.0151 23.9825 16.0885 24.4934 17.288C25.5113 16.5743 26.6026 15.9715 27.7487 15.4897C28.3368 15.2477 27.9447 15.0589 27.7487 14.8459C26.9015 13.9551 26.2527 12.8949 25.8451 11.7352C25.4375 10.5754 25.2804 9.34239 25.384 8.11746C25.5418 6.01172 26.4525 4.03319 27.9495 2.54387C29.4464 1.05456 31.4296 0.154066 33.5362 0.00714754C35.6427 -0.139771 37.7317 0.476714 39.4209 1.7438C41.1101 3.01089 42.2866 4.84386 42.7352 6.90731C43.0526 8.27778 43.0314 9.70494 42.6734 11.0654C42.3153 12.4258 41.6313 13.6785 40.6803 14.7152C40.5133 14.9088 40.3391 15.0976 40.1382 15.3203C41.1253 15.7537 42.0812 16.2551 42.999 16.8209C44.2406 17.6317 44.5819 18.5804 43.9671 19.5292C43.3717 20.4392 42.3818 20.4973 41.1596 19.7543C39.0256 18.3822 36.5374 17.6635 34.0005 17.6862C31.4637 17.709 28.9887 18.4724 26.8798 19.8825C26.3184 20.1653 25.8329 20.5782 25.4636 21.0868C25.0944 21.5954 24.8522 22.185 24.7572 22.8063C24.4173 24.4849 23.5365 26.0058 22.2498 27.1362C23.2397 27.572 24.1988 28.075 25.1202 28.6416C26.3304 29.4476 26.6983 30.4326 26.0884 31.3596C25.4784 32.2866 24.4813 32.3277 23.2808 31.5702C21.7467 30.6044 20.0319 29.9614 18.2411 29.6803C16.4502 29.3992 14.6209 29.486 12.8647 29.9354C11.1085 30.3847 9.46228 31.1872 8.02651 32.2939C6.59074 33.4005 5.39553 34.7881 4.51381 36.372C4.11002 37.0712 3.79613 37.8185 3.57957 38.5963C3.51138 38.825 3.49345 39.0658 3.52702 39.3021C3.5606 39.5384 3.64487 39.7647 3.77407 39.9654C3.90326 40.166 4.07433 40.3364 4.27554 40.4648C4.47674 40.5932 4.70334 40.6766 4.93978 40.7092C5.28196 40.7582 5.62773 40.7777 5.97325 40.7673H19.556C19.9013 40.7566 20.247 40.7744 20.5894 40.8205C20.9693 40.8885 21.3146 41.0841 21.5682 41.3749C21.8218 41.6658 21.9685 42.0345 21.984 42.4201C21.9996 42.8057 21.883 43.1851 21.6536 43.4954C21.4242 43.8057 21.0957 44.0284 20.7226 44.1267C20.4127 44.1946 20.0958 44.2255 19.7786 44.2186C15.0494 44.2186 10.3201 44.2356 5.59084 44.2186C4.24861 44.3122 2.9223 43.8823 1.89026 43.019C0.858219 42.1557 0.200673 40.9263 0.0556147 39.5886C-0.0354661 38.753 0.0800572 37.9077 0.392036 37.1272C1.1588 34.9589 2.37053 32.9749 3.94941 31.3027C5.5283 29.6304 7.43944 28.3069 9.56013 27.4169C9.76828 27.3225 9.974 27.2257 10.1894 27.1265M16.2934 25.9696C17.712 25.9696 19.0725 25.406 20.0756 24.4029C21.0787 23.3998 21.6423 22.0393 21.6423 20.6207C21.6423 19.2021 21.0787 17.8416 20.0756 16.8385C19.0725 15.8354 17.712 15.2719 16.2934 15.2719C14.8748 15.2719 13.5143 15.8354 12.5112 16.8385C11.5081 17.8416 10.9445 19.2021 10.9445 20.6207C10.9445 22.0393 11.5081 23.3998 12.5112 24.4029C13.5143 25.406 14.8748 25.9696 16.2934 25.9696ZM39.4702 8.79998C39.4438 7.40313 38.8712 6.07222 37.8751 5.09257C36.879 4.11292 35.5387 3.56251 34.1416 3.55934C32.7445 3.55618 31.4018 4.1005 30.4013 5.07563C29.4008 6.05076 28.8221 7.37906 28.7894 8.77578C28.7728 9.48657 28.8982 10.1935 29.1583 10.8552C29.4184 11.5169 29.808 12.12 30.3042 12.6292C30.8005 13.1383 31.3934 13.5433 32.0482 13.8203C32.7029 14.0974 33.4065 14.2409 34.1174 14.2425C34.8284 14.2441 35.5326 14.1038 36.1886 13.8297C36.8446 13.5557 37.4394 13.1534 37.9379 12.6465C38.4364 12.1396 38.8288 11.5382 39.0919 10.8777C39.355 10.2172 39.4836 9.51084 39.4702 8.79998Z" fill="#2D2DC1"/>
<path d="M32.0491 44.3036C31.4161 44.3102 30.788 44.1909 30.2013 43.9529C29.6147 43.7148 29.0812 43.3626 28.6317 42.9168C26.9375 41.2782 25.2167 39.647 23.52 38.0011C23.3154 37.853 23.1443 37.6634 23.018 37.4446C22.8917 37.2259 22.813 36.9829 22.7869 36.7316C22.7609 36.4804 22.7881 36.2265 22.8669 35.9865C22.9457 35.7465 23.0742 35.5258 23.2441 35.3388C23.4214 35.1575 23.6359 35.0167 23.8728 34.9262C24.1098 34.8358 24.3635 34.7978 24.6165 34.8148C24.8696 34.8318 25.1159 34.9035 25.3386 35.0249C25.5613 35.1462 25.755 35.3145 25.9064 35.5179C27.5546 37.0911 29.1908 38.6643 30.8366 40.2496C31.7321 41.1064 32.2016 41.0653 32.918 40.0633C35.5207 36.4328 38.1209 32.8024 40.7186 29.1719C40.8785 28.9322 41.0531 28.7027 41.2414 28.4845C41.5214 28.1709 41.9069 27.9712 42.3245 27.9233C42.7422 27.8754 43.1628 27.9827 43.5065 28.2247C43.8502 28.4668 44.0929 28.8268 44.1885 29.2362C44.284 29.6455 44.2258 30.0758 44.0248 30.445C43.7721 30.8643 43.4949 31.2684 43.1946 31.6551C40.663 35.1936 38.1314 38.7329 35.5997 42.273C35.2096 42.8686 34.6842 43.3635 34.0663 43.7173C33.4483 44.0711 32.7555 44.2736 32.0443 44.3085" fill="#2D2DC1"/>
</g>
</svg>
