<svg width="44" height="44" viewBox="0 0 44 44" fill="none" xmlns="http://www.w3.org/2000/svg">
<path d="M40.8271 33.6045C40.7721 33.5839 39.4521 33.0476 36.6642 32.917C35.4132 32.8772 34.1609 32.9427 32.9208 33.113C33.0651 32.7402 33.1127 32.337 33.0592 31.941C33.0057 31.5449 32.8529 31.1688 32.6149 30.8476L32.4155 30.5761C32.3052 30.4354 32.1445 30.3432 31.9675 30.319C31.7904 30.2948 31.6108 30.3406 31.4669 30.4465C31.3229 30.5525 31.2259 30.7103 31.1964 30.8866C31.1668 31.0628 31.2071 31.2437 31.3086 31.3908L31.508 31.6623C31.5865 31.7686 31.6433 31.8892 31.6752 32.0175C31.707 32.1457 31.7131 32.2789 31.6933 32.4096C31.6735 32.5402 31.6281 32.6656 31.5598 32.7786C31.4914 32.8917 31.4014 32.9901 31.2949 33.0683L30.6692 33.5289C30.5638 33.6084 30.4433 33.6657 30.3152 33.6976C30.187 33.7295 30.0537 33.7353 29.9233 33.7145C29.7929 33.6948 29.6678 33.6494 29.5551 33.5809C29.4424 33.5125 29.3444 33.4224 29.2668 33.3158L26.8158 29.9951C26.6579 29.7813 26.5913 29.5135 26.6306 29.2505C26.6699 28.9876 26.8119 28.751 27.0255 28.5926L27.6546 28.1286C27.7597 28.048 27.8797 27.9892 28.0078 27.9556C28.1359 27.9219 28.2694 27.9141 28.4005 27.9326C28.5309 27.951 28.6562 27.9955 28.769 28.0634C28.8818 28.1314 28.9798 28.2213 29.0571 28.328L29.6758 29.1667C29.7841 29.3127 29.9458 29.4098 30.1255 29.4368C30.3053 29.4639 30.4884 29.4187 30.6349 29.3111C30.7079 29.2577 30.7697 29.1904 30.8166 29.1131C30.8636 29.0358 30.8948 28.9499 30.9086 28.8605C30.9223 28.7711 30.9182 28.6799 30.8966 28.592C30.875 28.5042 30.8363 28.4214 30.7827 28.3486L30.4389 27.8776C30.5322 27.8944 30.6263 27.9059 30.7208 27.912H30.9614C31.6959 27.912 32.4071 27.6541 32.9708 27.1833C33.5346 26.7125 33.9151 26.0587 34.0461 25.336C34.177 24.6133 34.0501 23.8675 33.6873 23.2289C33.3246 22.5902 32.7492 22.0991 32.0614 21.8414C32.5132 21.4531 32.845 20.9442 33.018 20.3742C33.191 19.8042 33.198 19.1967 33.0382 18.6229C32.8784 18.049 32.5584 17.5326 32.1158 17.134C31.6731 16.7355 31.126 16.4712 30.5386 16.3723C30.6851 16.2828 30.8242 16.1816 30.9546 16.0698C31.2686 15.803 31.5261 15.4761 31.7121 15.1083C31.898 14.7406 32.0086 14.3394 32.0374 13.9283C32.0961 13.0999 31.824 12.282 31.2809 11.6538C30.7377 11.0256 29.9677 10.6383 29.1396 10.5767C29.0502 10.5767 28.9608 10.5767 28.8714 10.5767C29.1014 10.178 29.2388 9.7328 29.2736 9.2739C29.3186 8.72495 29.2183 8.17385 28.9828 7.67594C28.7473 7.17804 28.3849 6.75088 27.9321 6.43737C27.4792 6.12386 26.9519 5.93504 26.4029 5.88989C25.854 5.84474 25.3029 5.94485 24.8049 6.18015C24.8049 6.13546 24.8049 6.08733 24.8049 6.04265C24.8495 5.42662 24.7111 4.81113 24.4072 4.27345C24.1033 3.73577 23.6473 3.29985 23.0965 3.0204C22.5456 2.74096 21.9246 2.63044 21.3112 2.70273C20.6978 2.77501 20.1194 3.02688 19.6486 3.42671C19.3565 3.67679 19.1129 3.97861 18.9302 4.31702C18.8852 3.56737 18.5724 2.85885 18.0486 2.32061C17.5249 1.78237 16.8252 1.45026 16.0771 1.38483C15.6662 1.35212 15.2529 1.40121 14.8611 1.52925C14.4693 1.65728 14.1068 1.86173 13.7946 2.13077C13.2811 2.56193 12.9216 3.14823 12.7702 3.8014C12.6463 3.38462 12.4371 2.99814 12.1559 2.66647C11.8748 2.3348 11.5278 2.06516 11.1369 1.87467C10.746 1.68418 10.3199 1.57698 9.88539 1.55987C9.45092 1.54277 9.01763 1.61613 8.613 1.7753C8.20838 1.93447 7.84124 2.17599 7.53487 2.48453C7.22851 2.79307 6.98959 3.1619 6.83329 3.56764C6.67698 3.97339 6.60668 4.40718 6.62686 4.84152C6.64704 5.27586 6.75725 5.70127 6.9505 6.09077C6.46637 5.97054 5.96045 5.96836 5.47531 6.08441C4.99017 6.20046 4.54 6.43135 4.16269 6.75765C3.79143 7.07514 3.49961 7.47509 3.31053 7.92552C3.12146 8.37595 3.04039 8.86436 3.07379 9.35172C3.10719 9.83907 3.25415 10.3119 3.50291 10.7323C3.75167 11.1527 4.09534 11.5091 4.50644 11.773C4.00678 11.9241 3.55279 12.1977 3.18565 12.5688C2.81851 12.9399 2.54985 13.3968 2.40405 13.898C2.25826 14.3993 2.23993 14.929 2.35075 15.4391C2.46156 15.9492 2.69801 16.4236 3.03862 16.8192C3.30632 17.1325 3.63335 17.3898 4.00089 17.5763C4.36844 17.7627 4.76923 17.8746 5.18019 17.9055H5.40019C5.04305 18.3508 4.81429 18.8852 4.73857 19.451C4.66285 20.0167 4.74304 20.5925 4.97051 21.116C5.19797 21.6396 5.56407 22.0911 6.02931 22.4219C6.49455 22.7526 7.04127 22.9501 7.6105 22.993H7.85456C8.57421 22.9947 9.27196 22.7455 9.82769 22.2883C9.77927 22.4694 9.74819 22.6547 9.73487 22.8417C9.70208 23.2543 9.75139 23.6693 9.87995 24.0626C10.0085 24.456 10.2138 24.82 10.4839 25.1336C10.754 25.4472 11.0836 25.7041 11.4536 25.8896C11.8236 26.075 12.2267 26.1852 12.6396 26.2139H12.8802C13.4298 26.2144 13.9697 26.0685 14.4442 25.7911C14.4442 25.853 14.4271 25.9183 14.4202 25.9836C14.3576 26.8131 14.627 27.6336 15.1691 28.2646C15.7112 28.8956 16.4816 29.2856 17.3111 29.3489H17.5517C18.1757 29.3507 18.7856 29.1637 19.3014 28.8126C19.2408 29.6407 19.5112 30.459 20.0531 31.088C20.5951 31.7169 21.3645 32.1052 22.1924 32.1676H22.433C23.0754 32.1672 23.7021 31.9691 24.2279 31.6001C24.7537 31.2311 25.1532 30.7091 25.3721 30.1051C25.4501 30.3508 25.5661 30.5828 25.7158 30.7926L28.1599 34.1201C28.344 34.3722 28.5766 34.5851 28.8439 34.7462C29.1113 34.9073 29.4081 35.0135 29.7171 35.0586C29.8307 35.077 29.9457 35.0862 30.0608 35.0861C30.2662 35.0858 30.4706 35.0592 30.6692 35.007C30.7983 36.4526 31.0665 37.8823 31.4702 39.2764C32.2471 41.9576 33.0858 43.1058 33.1202 43.1539C33.2304 43.2946 33.3911 43.3868 33.5682 43.4109C33.7453 43.4351 33.9249 43.3894 34.0688 43.2835C34.2127 43.1775 34.3098 43.0197 34.3393 42.8434C34.3689 42.6671 34.3286 42.4863 34.2271 42.3392C34.2271 42.3392 33.4914 41.308 32.7902 38.9017C32.7111 38.6336 32.6424 38.3689 32.5771 38.1076C32.7558 38.4514 32.9517 38.7951 33.1614 39.1389C34.6121 41.5451 35.7189 42.4217 35.7671 42.4561C35.9089 42.5678 36.089 42.6193 36.2684 42.5993C36.4479 42.5794 36.6123 42.4897 36.7261 42.3495C36.8404 42.2077 36.8937 42.0263 36.8744 41.8452C36.855 41.6641 36.7646 41.4981 36.623 41.3836C36.623 41.3836 35.6742 40.5998 34.4024 38.5305C36.2036 40.6651 37.4342 41.3733 37.4961 41.4042C37.6543 41.4954 37.8422 41.52 38.0185 41.4726C38.1948 41.4252 38.3451 41.3097 38.4363 41.1516C38.5274 40.9934 38.552 40.8055 38.5047 40.6291C38.4573 40.4528 38.3418 40.3026 38.1836 40.2114C38.1836 40.2114 37.0871 39.5617 35.468 37.6436C35.1724 37.2998 34.9008 36.9561 34.6533 36.6123C35.0967 36.7876 35.5643 36.9905 36.0283 37.2242C38.2799 38.338 39.1633 39.2351 39.1702 39.242C39.2345 39.3095 39.3118 39.3631 39.3975 39.3998C39.4832 39.4364 39.5754 39.4553 39.6686 39.4551C39.8026 39.4547 39.9335 39.4151 40.0453 39.3412C40.157 39.2673 40.2448 39.1624 40.2977 39.0394C40.3507 38.9163 40.3665 38.7805 40.3433 38.6485C40.3201 38.5166 40.2588 38.3943 40.1671 38.2967C40.1258 38.252 39.1358 37.2276 36.6367 35.9936C38.9536 36.7292 39.9299 37.4545 39.9368 37.4614C40.0572 37.5533 40.2046 37.6028 40.3561 37.6023C40.4993 37.6019 40.6387 37.5568 40.755 37.4733C40.8713 37.3898 40.9586 37.2721 41.0047 37.1366C41.0509 37.0011 41.0536 36.8546 41.0126 36.7175C40.9715 36.5803 40.8886 36.4595 40.7755 36.3717C40.7308 36.3373 39.5964 35.478 36.9324 34.653C36.5474 34.5326 36.1658 34.4261 35.8014 34.3333H36.6127C39.1221 34.433 40.2943 34.897 40.3046 34.9005C40.3876 34.934 40.4762 34.9515 40.5658 34.952C40.7396 34.9751 40.9156 34.931 41.0579 34.8287C41.2002 34.7263 41.2981 34.5735 41.3314 34.4014C41.3648 34.2293 41.3312 34.051 41.2374 33.9028C41.1437 33.7547 40.9969 33.648 40.8271 33.6045ZM32.2917 23.6358C32.4438 23.8107 32.5595 24.0142 32.6321 24.2344C32.7047 24.4545 32.7327 24.6869 32.7146 24.918C32.6993 25.1505 32.6381 25.3777 32.5344 25.5864C32.4306 25.7951 32.2865 25.9812 32.1103 26.1337C31.9341 26.2862 31.7293 26.4023 31.5079 26.475C31.2865 26.5478 31.0528 26.5759 30.8205 26.5576C30.3619 26.5296 29.9324 26.3233 29.6239 25.9828C29.3153 25.6424 29.1521 25.1948 29.1692 24.7356C29.1863 24.2764 29.3822 23.8422 29.7152 23.5255C30.0481 23.2089 30.4917 23.035 30.9511 23.0411H31.0852C31.3157 23.0576 31.5407 23.1196 31.7472 23.2235C31.9536 23.3273 32.1376 23.4709 32.2883 23.6461L32.2917 23.6358ZM31.3533 18.3283C31.5427 18.5475 31.6751 18.81 31.7389 19.0926C31.8027 19.3752 31.796 19.6691 31.7192 19.9485C31.6424 20.2278 31.4979 20.4839 31.2986 20.6942C31.0993 20.9044 30.8513 21.0623 30.5765 21.154C30.3016 21.2456 30.0085 21.2681 29.7229 21.2194C29.4373 21.1708 29.1681 21.0526 28.939 20.8752C28.71 20.6978 28.5282 20.4667 28.4097 20.2024C28.2912 19.938 28.2396 19.6485 28.2596 19.3595C28.2933 18.9172 28.4925 18.5039 28.8174 18.2019C29.1423 17.8999 29.5691 17.7315 30.0127 17.7301H30.1502C30.6139 17.7648 31.0458 17.9794 31.3533 18.3283ZM28.9093 11.9414H29.0433C29.3289 11.9672 29.6038 12.0623 29.8442 12.2186C30.0846 12.3749 30.2832 12.5875 30.4227 12.838C30.5622 13.0885 30.6384 13.3693 30.6446 13.656C30.6509 13.9427 30.587 14.2265 30.4585 14.4828C30.33 14.7392 30.1409 14.9602 29.9075 15.1268C29.6741 15.2934 29.4036 15.4004 29.1194 15.4386C28.8352 15.4768 28.546 15.4449 28.2769 15.3459C28.0079 15.2468 27.7671 15.0835 27.5755 14.8701C27.4239 14.695 27.3087 14.4914 27.2367 14.2713C27.1647 14.0511 27.1373 13.8188 27.1561 13.588C27.1857 13.1426 27.3831 12.725 27.7084 12.4194C28.0338 12.1139 28.4629 11.943 28.9093 11.9414ZM25.0146 7.69265C25.3322 7.41713 25.7388 7.26574 26.1593 7.2664H26.2933C26.759 7.30221 27.1916 7.52097 27.4964 7.87483C27.724 8.13831 27.8682 8.46335 27.911 8.80883C27.9538 9.15432 27.8932 9.50473 27.7368 9.81575C27.5804 10.1268 27.3353 10.3844 27.0325 10.5561C26.7297 10.7279 26.3827 10.8059 26.0355 10.7804C25.6883 10.7549 25.3565 10.6271 25.082 10.413C24.8075 10.1989 24.6026 9.90818 24.4933 9.57766C24.3841 9.24713 24.3752 8.89162 24.468 8.55609C24.5608 8.22056 24.751 7.92008 25.0146 7.69265ZM20.5802 4.47515C20.8438 4.25167 21.1673 4.11074 21.5105 4.06994C21.8537 4.02913 22.2012 4.09025 22.5099 4.24568C22.8186 4.4011 23.0746 4.64396 23.2462 4.94395C23.4177 5.24395 23.4971 5.58781 23.4746 5.93265C23.439 6.39852 23.2198 6.83118 22.8653 7.13546C22.5107 7.43973 22.0498 7.5907 21.5839 7.55515C21.1181 7.51959 20.6854 7.30043 20.3811 6.94586C20.0768 6.5913 19.9259 6.13039 19.9614 5.66452C19.9793 5.43591 20.0422 5.2131 20.1467 5.00896C20.2511 4.80482 20.3949 4.62339 20.5699 4.47515H20.5802ZM14.678 3.18265C14.9956 2.90713 15.4022 2.75574 15.8227 2.7564H15.9602C16.1913 2.774 16.4167 2.83696 16.6235 2.94167C16.8303 3.04639 17.0144 3.1908 17.1654 3.36668C17.3164 3.54256 17.4313 3.74646 17.5035 3.96673C17.5756 4.187 17.6037 4.41933 17.5861 4.65046C17.5685 4.88159 17.5056 5.10698 17.4008 5.31378C17.2961 5.52057 17.1517 5.70472 16.9758 5.8557C16.8 6.00668 16.5961 6.12154 16.3758 6.19373C16.1555 6.26591 15.9232 6.294 15.6921 6.2764C15.3427 6.25394 15.0079 6.12778 14.7306 5.91405C14.4532 5.70032 14.246 5.40874 14.1353 5.07658C14.0245 4.74442 14.0154 4.38679 14.109 4.04942C14.2026 3.71204 14.3948 3.41025 14.6608 3.18265H14.678ZM8.61769 3.37171C8.93533 3.09619 9.34188 2.9448 9.76237 2.94546H9.88956C10.2385 2.96986 10.5723 3.09748 10.8485 3.31211C11.1247 3.52673 11.3309 3.81865 11.4408 4.15075C11.5506 4.48285 11.5592 4.84011 11.4655 5.17712C11.3718 5.51413 11.1799 5.81564 10.9144 6.04333C10.6488 6.27101 10.3216 6.41458 9.9742 6.45577C9.62684 6.49696 9.27507 6.43391 8.96363 6.27464C8.6522 6.11538 8.39516 5.86708 8.22522 5.56134C8.05528 5.2556 7.9801 4.90623 8.00925 4.55765C8.02753 4.32963 8.09069 4.10748 8.19511 3.90395C8.29952 3.70043 8.44313 3.51955 8.61769 3.37171ZM4.448 9.00233C4.48172 8.56003 4.6809 8.14668 5.00582 7.8447C5.33074 7.54271 5.75754 7.37427 6.20112 7.37296H6.33862C6.80367 7.40899 7.23551 7.6278 7.53959 7.98149C7.84368 8.33519 7.99525 8.79495 7.96112 9.26015C7.94488 9.49109 7.8827 9.71646 7.77822 9.92306C7.67374 10.1297 7.52907 10.3133 7.35269 10.4633C7.08875 10.6911 6.76311 10.8353 6.41706 10.8778C6.07102 10.9202 5.72017 10.8589 5.409 10.7017C5.09784 10.5445 4.84038 10.2983 4.66929 9.99457C4.4982 9.6908 4.42118 9.34306 4.448 8.99546V9.00233ZM5.28331 16.5339C4.83224 16.4942 4.41373 16.2825 4.11447 15.9427C3.81522 15.6028 3.65816 15.1609 3.67584 14.7084C3.69351 14.2559 3.88457 13.8276 4.20942 13.5122C4.53427 13.1967 4.96802 13.0183 5.42081 13.0139H5.55487C6.02074 13.049 6.45359 13.2677 6.75819 13.622C7.06279 13.9762 7.21419 14.4369 7.17909 14.9028C7.14399 15.3687 6.92526 15.8015 6.57103 16.1061C6.21679 16.4107 5.75606 16.5621 5.29019 16.527L5.28331 16.5339ZM8.99581 21.2089C8.78078 21.394 8.52418 21.5244 8.24787 21.589C7.97156 21.6535 7.68374 21.6503 7.40894 21.5796C7.13414 21.5089 6.88051 21.3728 6.66966 21.183C6.45882 20.9931 6.29701 20.755 6.19802 20.4891C6.09904 20.2232 6.06582 19.9373 6.10119 19.6557C6.13657 19.3742 6.23949 19.1054 6.40118 18.8722C6.56287 18.639 6.77855 18.4484 7.02982 18.3166C7.28108 18.1848 7.5605 18.1157 7.84425 18.1151H7.98175C8.32887 18.1423 8.66019 18.2715 8.93396 18.4866C9.20773 18.7018 9.41169 18.9931 9.52013 19.324C9.62858 19.6548 9.63666 20.0104 9.54335 20.3458C9.45004 20.6813 9.25953 20.9816 8.99581 21.2089ZM14.0146 24.4264C13.7994 24.6116 13.5427 24.7421 13.2662 24.8066C12.9897 24.8711 12.7018 24.8678 12.4269 24.7969C12.152 24.7261 11.8983 24.5897 11.6875 24.3996C11.4766 24.2095 11.3149 23.9712 11.2162 23.705C11.1174 23.4388 11.0845 23.1527 11.1202 22.8711C11.1559 22.5895 11.2593 22.3207 11.4214 22.0876C11.5835 21.8545 11.7996 21.6642 12.0512 21.5327C12.3029 21.4012 12.5825 21.3326 12.8664 21.3326H12.9833C13.2141 21.35 13.4391 21.4128 13.6456 21.5172C13.8521 21.6217 14.0359 21.7659 14.1866 21.9415C14.3374 22.1171 14.4519 22.3207 14.5239 22.5406C14.5958 22.7606 14.6236 22.9926 14.6058 23.2233C14.5917 23.453 14.5322 23.6776 14.4307 23.8841C14.3293 24.0906 14.1878 24.2749 14.0146 24.4264ZM18.6827 27.5889C18.4676 27.776 18.2104 27.9082 17.933 27.9742C17.6557 28.0401 17.3665 28.0378 17.0902 27.9675C16.8139 27.8972 16.5588 27.761 16.3467 27.5705C16.1346 27.38 15.9719 27.1409 15.8725 26.8737C15.773 26.6066 15.7398 26.3193 15.7757 26.0364C15.8116 25.7536 15.9156 25.4837 16.0786 25.2499C16.2417 25.0161 16.459 24.8252 16.712 24.6938C16.965 24.5623 17.246 24.4942 17.5311 24.4951H17.6686C18.0157 24.5223 18.3471 24.6515 18.6208 24.8666C18.8946 25.0818 19.0986 25.3731 19.207 25.704C19.3155 26.0348 19.3235 26.3904 19.2302 26.7258C19.1369 27.0613 18.9464 27.3616 18.6827 27.5889ZM23.5605 30.4111C23.3855 30.5623 23.1825 30.6774 22.9629 30.7499C22.7433 30.8224 22.5116 30.8509 22.281 30.8336C22.0504 30.8164 21.8255 30.7538 21.6192 30.6494C21.4128 30.5451 21.2291 30.401 21.0786 30.2255C20.8578 29.9702 20.715 29.6568 20.6673 29.3227C20.6196 28.9886 20.6689 28.6478 20.8095 28.3409C20.9501 28.034 21.1759 27.7741 21.4601 27.592C21.7443 27.4099 22.0749 27.3134 22.4124 27.3139H22.5464C22.8958 27.3363 23.2306 27.4625 23.5079 27.6762C23.7852 27.89 23.9925 28.1816 24.1032 28.5137C24.214 28.8459 24.2231 29.2035 24.1295 29.5409C24.0359 29.8783 23.8437 30.18 23.5777 30.4076L23.5605 30.4111ZM25.4718 28.3933C25.3628 27.8841 25.1262 27.411 24.7843 27.0183C24.2839 26.4369 23.5877 26.0591 22.8275 25.9565C22.0673 25.8538 21.2959 26.0335 20.6592 26.4614C20.6995 25.8935 20.5846 25.3253 20.3267 24.8177C20.0688 24.3101 19.6777 23.8822 19.1952 23.5798C18.7127 23.2775 18.1571 23.1121 17.5879 23.1014C17.0186 23.0906 16.4571 23.235 15.9636 23.5189C15.9741 23.4563 15.981 23.3932 15.9842 23.3298C16.0314 22.7191 15.8985 22.108 15.6018 21.5721C15.3052 21.0362 14.8579 20.5991 14.3153 20.3148C13.7728 20.0305 13.1588 19.9116 12.5493 19.9728C11.9398 20.0339 11.3617 20.2725 10.8864 20.6589C10.9321 20.4785 10.962 20.2945 10.9758 20.1089C11.0384 19.2793 10.769 18.4589 10.2269 17.8279C9.68482 17.1968 8.91437 16.8068 8.08487 16.7436C8.01154 16.7436 7.93935 16.7436 7.86831 16.7436C8.14178 16.4001 8.34014 16.0031 8.45059 15.5782C8.56104 15.1533 8.58111 14.71 8.50952 14.2768C8.43792 13.8437 8.27625 13.4304 8.03494 13.0636C7.79363 12.6969 7.47806 12.3848 7.10862 12.1476C7.52913 12.0242 7.91829 11.812 8.24987 11.5255C8.77915 11.0719 9.14221 10.455 9.28165 9.77206C9.4211 9.08914 9.32899 8.37923 9.01987 7.75452C9.18733 7.79312 9.35736 7.81954 9.52862 7.83358H9.76925C10.4778 7.83104 11.1648 7.58933 11.7188 7.14761C12.2728 6.70588 12.6615 6.09003 12.8217 5.39983C12.9458 5.82185 13.1591 6.21225 13.4474 6.54452C13.7121 6.86295 14.038 7.125 14.4059 7.31513C14.7738 7.50526 15.1761 7.61961 15.5889 7.6514H15.8296C16.3942 7.64835 16.9476 7.49318 17.4316 7.20222C17.9155 6.91125 18.3121 6.49525 18.5796 5.99796C18.6247 6.75546 18.9429 7.47094 19.475 8.01193C20.0071 8.55293 20.7173 8.88279 21.4739 8.94046H21.7146C22.1685 8.94181 22.6171 8.84199 23.0277 8.64827V8.78233C22.9651 9.61188 23.2345 10.4323 23.7766 11.0634C24.3187 11.6944 25.0891 12.0844 25.9186 12.1476H26.1593H26.1799C25.9301 12.5865 25.7898 13.0792 25.7711 13.5839C25.7524 14.0885 25.8557 14.5902 26.0724 15.0464C26.289 15.5026 26.6125 15.8998 27.0154 16.2042C27.4183 16.5087 27.8887 16.7114 28.3867 16.7951C28.2402 16.8847 28.1011 16.9858 27.9708 17.0976C27.5574 17.4525 27.2437 17.909 27.0604 18.422C26.8772 18.9351 26.8309 19.487 26.9259 20.0235C27.021 20.5599 27.2542 21.0623 27.6026 21.4812C27.951 21.9 28.4025 22.2208 28.9127 22.412C28.3322 22.9134 27.956 23.6103 27.8552 24.3706C27.7545 25.1309 27.9363 25.9018 28.3661 26.537C27.8191 26.5111 27.2799 26.6751 26.8399 27.0011L26.2142 27.4617C25.8948 27.7003 25.6397 28.0145 25.4718 28.3761V28.3933Z" fill="#2D2DC1"/>
</svg>
