<svg width="33" height="36" viewBox="0 0 33 36" fill="none" xmlns="http://www.w3.org/2000/svg">
<path d="M0 12.6V34.2C0 34.6774 0.193154 35.1352 0.536971 35.4728C0.880787 35.8104 1.3471 36 1.83333 36H11C11.4862 36 11.9525 35.8104 12.2964 35.4728C12.6402 35.1352 12.8333 34.6774 12.8333 34.2V21.6H20.1667V34.2C20.1667 34.6774 20.3598 35.1352 20.7036 35.4728C21.0475 35.8104 21.5138 36 22 36H31.1667C31.6529 36 32.1192 35.8104 32.463 35.4728C32.8068 35.1352 33 34.6774 33 34.2V12.6C33 12.3206 32.9337 12.045 32.8064 11.795C32.6792 11.5451 32.4944 11.3277 32.2667 11.16L17.6 0.36C17.2827 0.12632 16.8967 0 16.5 0C16.1033 0 15.7173 0.12632 15.4 0.36L0.733334 11.16C0.505641 11.3277 0.320834 11.5451 0.19355 11.795C0.0662658 12.045 0 12.3206 0 12.6ZM3.66667 13.5L16.5 4.05L29.3333 13.5V32.4H23.8333V19.8C23.8333 19.3226 23.6402 18.8648 23.2964 18.5272C22.9525 18.1896 22.4862 18 22 18H11C10.5138 18 10.0475 18.1896 9.70364 18.5272C9.35982 18.8648 9.16667 19.3226 9.16667 19.8V32.4H3.66667V13.5Z" fill="#2D2DC1"/>
</svg>
